<svg xmlns="http://www.w3.org/2000/svg" xmlns:xlink="http://www.w3.org/1999/xlink" viewBox="0 0 100 125" version="1.1" x="0px" y="0px"><title>C</title><desc>Created with Sketch.</desc><g stroke="none" stroke-width="1" fill="none" fill-rule="evenodd"><g fill="#000000"><path d="M71,78 C62.7157288,78 56,71.2842712 56,63 C56,54.7157288 62.7157288,48 71,48 C79.2842712,48 86,54.7157288 86,63 C86,71.2842712 79.2842712,78 71,78 Z M20,38 C11.7157288,38 5,31.2842712 5,23 C5,14.7157288 11.7157288,8 20,8 C28.2842712,8 35,14.7157288 35,23 C35,31.2842712 28.2842712,38 20,38 Z M43.5,58 C39.3578644,58 36,54.6421356 36,50.5 C36,46.3578644 39.3578644,43 43.5,43 C47.6421356,43 51,46.3578644 51,50.5 C51,54.6421356 47.6421356,58 43.5,58 Z M55.5,93 C51.3578644,93 48,89.6421356 48,85.5 C48,81.3578644 51.3578644,78 55.5,78 C59.6421356,78 63,81.3578644 63,85.5 C63,89.6421356 59.6421356,93 55.5,93 Z M92.5,100 C88.3578644,100 85,96.6421356 85,92.5 C85,88.3578644 88.3578644,85 92.5,85 C96.6421356,85 100,88.3578644 100,92.5 C100,96.6421356 96.6421356,100 92.5,100 Z M92.5,43 C88.3578644,43 85,39.6421356 85,35.5 C85,31.3578644 88.3578644,28 92.5,28 C96.6421356,28 100,31.3578644 100,35.5 C100,39.6421356 96.6421356,43 92.5,43 Z M20,93 C11.7157288,93 5,86.2842712 5,78 C5,69.7157288 11.7157288,63 20,63 C28.2842712,63 35,69.7157288 35,78 C35,86.2842712 28.2842712,93 20,93 Z M66,30 C57.7157288,30 51,23.2842712 51,15 C51,6.71572875 57.7157288,0 66,0 C74.2842712,0 81,6.71572875 81,15 C81,23.2842712 74.2842712,30 66,30 Z"/></g></g><text x="0" y="115" fill="#000000" font-size="5px" font-weight="bold" font-family="'Helvetica Neue', Helvetica, Arial-Unicode, Arial, Sans-serif">Created by Jonathan Coutiño</text><text x="0" y="120" fill="#000000" font-size="5px" font-weight="bold" font-family="'Helvetica Neue', Helvetica, Arial-Unicode, Arial, Sans-serif">from the Noun Project</text></svg>