<svg xmlns="http://www.w3.org/2000/svg" xmlns:xlink="http://www.w3.org/1999/xlink" version="1.1" x="0px" y="0px" viewBox="0 0 100 125" style="enable-background:new 0 0 100 100;" xml:space="preserve"><g><path d="M7.6,74.8c-1.4,0-2.6,1.2-2.6,2.6c0,1.2,0.8,2.2,1.9,2.5v14.9h1.3V79.8c1.1-0.3,1.9-1.3,1.9-2.5   C10.1,75.9,9,74.8,7.6,74.8z"/><path d="M14.1,50.2c-1.4,0-2.6,1.2-2.6,2.6c0,1.2,0.8,2.2,1.9,2.5v39.5h1.3V55.3c1.1-0.3,1.9-1.3,1.9-2.5   C16.6,51.4,15.5,50.2,14.1,50.2z"/><path d="M20.5,53.2c-1.4,0-2.6,1.2-2.6,2.6c0,1.2,0.8,2.2,1.9,2.5v36.5h1.3V58.2c1.1-0.3,1.9-1.3,1.9-2.5   C23.1,54.3,22,53.2,20.5,53.2z"/><path d="M26.8,24.8c-1.4,0-2.6,1.2-2.6,2.6c0,1.3,0.9,2.3,2.1,2.5v64.9h1.3v-65c1-0.4,1.7-1.3,1.7-2.4   C29.4,25.9,28.2,24.8,26.8,24.8z"/><path d="M33.5,44.5c-1.4,0-2.6,1.2-2.6,2.6c0,1.2,0.8,2.2,1.9,2.5v45.2h1.3V49.6c1.1-0.3,1.9-1.3,1.9-2.5   C36.1,45.7,34.9,44.5,33.5,44.5z"/><path d="M40,67c-1.4,0-2.6,1.2-2.6,2.6c0,1.2,0.8,2.2,1.9,2.5v22.7h1.3V72.1c1.1-0.3,1.9-1.3,1.9-2.5   C42.6,68.2,41.4,67,40,67z"/><path d="M46.5,63.2c-1.4,0-2.6,1.2-2.6,2.6c0,1.2,0.8,2.2,1.9,2.5v26.5h1.3V68.2c1.1-0.3,1.9-1.3,1.9-2.5   C49.1,64.3,47.9,63.2,46.5,63.2z"/><path d="M53,70.8c-1.4,0-2.6,1.2-2.6,2.6c0,1.2,0.8,2.2,1.9,2.5v19h1.3v-19c1.1-0.3,1.9-1.3,1.9-2.5   C55.6,71.9,54.4,70.8,53,70.8z"/><path d="M59.5,49.3c-1.4,0-2.6,1.2-2.6,2.6c0,1.2,0.8,2.2,1.9,2.5v40.4h1.3V54.4c1.1-0.3,1.9-1.3,1.9-2.5   C62.1,50.5,60.9,49.3,59.5,49.3z"/><path d="M66,23.5c-1.4,0-2.6,1.2-2.6,2.6c0,1.2,0.8,2.2,1.9,2.5v66.2h1.3V28.6c1.1-0.3,1.9-1.3,1.9-2.5   C68.6,24.7,67.4,23.5,66,23.5z"/><path d="M72.5,11.2c-1.4,0-2.6,1.2-2.6,2.6c0,1.2,0.8,2.2,1.9,2.5v78.5h1.3V16.3C74.2,16,75,15,75,13.8   C75,12.3,73.9,11.2,72.5,11.2z"/><path d="M79,4.8c-1.4,0-2.6,1.2-2.6,2.6c0,1.2,0.8,2.2,1.9,2.5v84.9h1.3V9.9c1.1-0.3,1.9-1.3,1.9-2.5   C81.5,5.9,80.4,4.8,79,4.8z"/><path d="M85.4,32.9c-1.4,0-2.6,1.2-2.6,2.6c0,1.2,0.8,2.2,1.9,2.5v56.9h1.3V37.9c1.1-0.3,1.9-1.3,1.9-2.5   C88,34,86.9,32.9,85.4,32.9z"/><path d="M94.5,68.3c0-1.4-1.2-2.6-2.6-2.6c-1.4,0-2.6,1.2-2.6,2.6c0,1.2,0.8,2.2,1.9,2.5v24h1.3v-24   C93.7,70.5,94.5,69.5,94.5,68.3z"/></g></svg>