<svg xmlns:dc="http://purl.org/dc/elements/1.1/" xmlns:inkscape="http://www.inkscape.org/namespaces/inkscape" xmlns:rdf="http://www.w3.org/1999/02/22-rdf-syntax-ns#" xmlns:cc="http://creativecommons.org/ns#" xmlns:svg="http://www.w3.org/2000/svg" xmlns:sodipodi="http://sodipodi.sourceforge.net/DTD/sodipodi-0.dtd" xmlns="http://www.w3.org/2000/svg" xmlns:xlink="http://www.w3.org/1999/xlink" version="1.1" x="0px" y="0px" viewBox="0 0 60 75" enable-background="new 0 0 60 60" xml:space="preserve"><path d="M17.6,31.511c-0.06-0.496-0.1-0.998-0.1-1.511c0-0.013,0.002-0.025,0.002-0.038C14.647,30.676-0.048,30.958,0,31.773  C0.049,32.589,14.694,31.137,17.6,31.511z"/><path d="M23.19,19.526c-2.168-2.011-10.43-14.12-11.086-13.634s8.546,11.903,9.841,14.557C22.339,20.116,22.756,19.809,23.19,19.526  z"/><path d="M25.005,18.544c-1.811-2.353-7.957-15.636-8.684-15.265c-0.728,0.371,6.473,13.154,7.308,15.979  C24.073,18.995,24.529,18.752,25.005,18.544z"/><path d="M27.468,17.757c0.5-0.103,1.014-0.166,1.534-0.207c-0.948-2.802-2.442-17.374-3.251-17.258  C24.944,0.408,27.586,14.778,27.468,17.757z"/><path d="M26.965,17.886c-1.396-2.602-5.274-16.737-6.053-16.49c-0.778,0.247,4.211,14.024,4.574,16.958  C25.966,18.167,26.459,18.013,26.965,17.886z"/><path d="M17.773,27.405c0.108-0.511,0.256-1.007,0.424-1.493c-2.919-0.245-16.93-4.748-17.149-3.961  C0.829,22.737,15.13,26.106,17.773,27.405z"/><path d="M17.527,29.454c0.023-0.524,0.076-1.041,0.162-1.546c-2.913,0.239-17.485-1.901-17.572-1.089  C0.03,27.632,14.739,28.607,17.527,29.454z"/><path d="M18.373,25.435c0.19-0.484,0.4-0.958,0.646-1.41c-2.864-0.738-15.903-7.461-16.249-6.722  C2.424,18.043,15.991,23.723,18.373,25.435z"/><path d="M19.285,23.586c0.267-0.445,0.558-0.874,0.877-1.281C17.474,21.12,5.698,12.327,5.234,13S17.222,21.509,19.285,23.586z"/><path d="M20.483,21.907c0.336-0.395,0.7-0.763,1.082-1.113C19.11,19.184,8.942,8.574,8.374,9.162  C7.807,9.749,18.776,19.508,20.483,21.907z"/><path d="M41.014,24.089c2.184-1.99,14.955-9.214,14.524-9.908c-0.432-0.694-12.607,7.537-15.349,8.594  C40.488,23.196,40.769,23.631,41.014,24.089z"/><path d="M41.829,25.985c2.457-1.598,16.278-6.636,15.968-7.391c-0.311-0.756-13.69,5.367-16.561,5.956  C41.462,25.014,41.662,25.491,41.829,25.985z"/><path d="M39.884,22.367c1.808-2.31,13.238-11.553,12.698-12.167c-0.539-0.613-11.169,9.483-13.713,10.994  C39.233,21.561,39.566,21.957,39.884,22.367z"/><path d="M42.323,27.986c2.674-1.17,17.157-3.871,16.976-4.667c-0.183-0.796-14.377,3.04-17.313,3.151  C42.131,26.963,42.239,27.47,42.323,27.986z"/><path d="M37.291,19.86c0.421,0.304,0.821,0.633,1.2,0.985c1.404-2.577,11.153-13.57,10.52-14.087  C48.378,6.242,39.545,17.963,37.291,19.86z"/><path d="M33.105,17.904c0.012-2.951,3.34-17.227,2.537-17.379c-0.803-0.153-2.981,14.331-4.061,17.086  C32.101,17.677,32.607,17.777,33.105,17.904z"/><path d="M30,17.5c0.36,0,0.715,0.024,1.067,0.054C30.596,14.629,31.523,0.019,30.707,0c-0.817-0.02-0.579,14.641-1.189,17.525  C29.679,17.518,29.837,17.5,30,17.5z"/><path d="M36.871,19.563c0.977-2.794,8.759-15.208,8.05-15.612c-0.71-0.405-7.486,12.601-9.398,14.848  C35.987,19.028,36.44,19.279,36.871,19.563z"/><path d="M35.057,18.574c0.505-2.919,6.133-16.438,5.367-16.72c-0.767-0.283-5.296,13.625-6.817,16.179  C34.104,18.184,34.587,18.366,35.057,18.574z"/><path d="M36.81,40.475c2.169,2.013,10.431,14.118,11.087,13.633c0.656-0.486-8.544-11.901-9.841-14.557  C37.661,39.885,37.244,40.191,36.81,40.475z"/><path d="M40.716,36.413c-0.268,0.445-0.559,0.874-0.878,1.281c2.688,1.185,14.465,9.978,14.928,9.304  C55.229,46.325,42.78,38.492,40.716,36.413z"/><path d="M39.518,38.093c-0.336,0.395-0.7,0.763-1.082,1.113c2.456,1.611,12.623,12.219,13.19,11.632  C52.193,50.25,41.224,40.491,39.518,38.093z"/><path d="M33.034,42.113c1.396,2.604,5.274,16.737,6.054,16.49c0.777-0.247-4.211-14.022-4.574-16.957  C34.034,41.833,33.54,41.987,33.034,42.113z"/><path d="M34.994,41.456c1.813,2.354,7.958,15.635,8.684,15.264c0.729-0.371-6.471-13.152-7.308-15.979  C35.927,41.005,35.471,41.248,34.994,41.456z"/><path d="M17.677,32.013c-2.674,1.171-17.157,3.87-16.975,4.668c0.182,0.795,14.375-3.04,17.312-3.152  C17.869,33.035,17.76,32.528,17.677,32.013z"/><path d="M42.399,28.488c0.061,0.497,0.101,1,0.101,1.512c0,0.013-0.002,0.024-0.002,0.037c2.855-0.713,17.55-0.997,17.502-1.812  C59.951,27.409,45.305,28.862,42.399,28.488z"/><path d="M42.227,32.595c-0.107,0.511-0.256,1.006-0.424,1.492c2.92,0.245,16.93,4.748,17.148,3.962  C59.171,37.262,44.872,33.893,42.227,32.595z"/><path d="M41.628,34.564c-0.19,0.484-0.399,0.958-0.646,1.41c2.866,0.739,15.903,7.461,16.249,6.723  C57.576,41.957,44.009,36.275,41.628,34.564z"/><path d="M42.473,30.545c-0.022,0.525-0.076,1.041-0.161,1.547c2.914-0.24,17.484,1.9,17.571,1.088S45.261,31.393,42.473,30.545z"/><path d="M22.708,40.139c-0.421-0.303-0.82-0.632-1.2-0.984c-1.407,2.579-11.153,13.569-10.519,14.086  C11.622,53.757,20.453,42.038,22.708,40.139z"/><path d="M18.985,35.91c-2.184,1.99-14.954,9.214-14.524,9.908c0.432,0.693,12.607-7.536,15.349-8.594  C19.512,36.803,19.231,36.368,18.985,35.91z"/><path d="M20.116,37.633c-1.808,2.31-13.238,11.553-12.699,12.166c0.539,0.613,11.167-9.479,13.713-10.993  C20.766,38.438,20.433,38.043,20.116,37.633z"/><path d="M18.17,34.014c-2.459,1.598-16.278,6.635-15.968,7.391s13.69-5.367,16.561-5.955C18.538,34.985,18.338,34.508,18.17,34.014z  "/><path d="M26.895,42.096c-0.013,2.952-3.339,17.226-2.537,17.379s2.981-14.33,4.06-17.086C27.899,42.323,27.392,42.223,26.895,42.096  z"/><path d="M32.531,42.243c-0.5,0.103-1.014,0.165-1.533,0.206c0.947,2.804,2.441,17.374,3.25,17.258  C35.057,59.592,32.415,45.224,32.531,42.243z"/><path d="M30,42.5c-0.36,0-0.715-0.024-1.068-0.054C29.404,45.372,28.477,59.98,29.293,60c0.817,0.02,0.578-14.639,1.189-17.524  C30.321,42.481,30.163,42.5,30,42.5z"/><path d="M24.942,41.426c-0.504,2.92-6.132,16.437-5.366,16.72c0.765,0.282,5.295-13.623,6.817-16.179  C25.895,41.816,25.413,41.634,24.942,41.426z"/><path d="M23.128,40.437c-0.978,2.797-8.758,15.207-8.049,15.612c0.709,0.404,7.486-12.6,9.398-14.848  C24.012,40.972,23.559,40.721,23.128,40.437z"/></svg>