<svg xmlns="http://www.w3.org/2000/svg" xmlns:xlink="http://www.w3.org/1999/xlink" version="1.1" x="0px" y="0px" viewBox="0 0 30 37.5" xml:space="preserve"><g transform="translate(-570 -200)"><g xmlns="http://www.w3.org/2000/svg" xmlns:xlink="http://www.w3.org/1999/xlink"><circle cx="573.5" cy="203.5" r="1.5"/><circle cx="596.5" cy="203.5" r="1.5"/><circle cx="578.5" cy="205.5" r="1.5"/><circle cx="574" cy="209" r="1"/><circle cx="584" cy="213" r="1"/><circle cx="583" cy="204" r="1"/><circle cx="589" cy="210" r="1"/><circle cx="588.5" cy="203.5" r="1.5"/><circle cx="592" cy="207" r="1"/><circle cx="592" cy="221" r="1"/><circle cx="592" cy="213" r="1"/><circle cx="596" cy="222" r="1"/><circle cx="573.5" cy="214.5" r="1.5"/><circle cx="573.5" cy="226.5" r="1.5"/><circle cx="580.5" cy="226.5" r="1.5"/><circle cx="590.5" cy="226.5" r="1.5"/><circle cx="596.5" cy="226.5" r="1.5"/><circle cx="582.5" cy="221.5" r="1.5"/><circle cx="588.5" cy="216.5" r="1.5"/><circle cx="578.5" cy="216.5" r="1.5"/><circle cx="596.5" cy="216.5" r="1.5"/><circle cx="578.5" cy="211.5" r="1.5"/><circle cx="583.5" cy="208.5" r="1.5"/><circle cx="595.5" cy="210.5" r="1.5"/><circle cx="574" cy="220" r="1"/><circle cx="577" cy="223" r="1"/><circle cx="587" cy="223" r="1"/></g></g><text x="0" y="45" fill="#000000" font-size="5px" font-weight="bold" font-family="'Helvetica Neue', Helvetica, Arial-Unicode, Arial, Sans-serif">Created by Hea Poh Lin</text><text x="0" y="50" fill="#000000" font-size="5px" font-weight="bold" font-family="'Helvetica Neue', Helvetica, Arial-Unicode, Arial, Sans-serif">from the Noun Project</text></svg>