<svg xmlns="http://www.w3.org/2000/svg" xmlns:xlink="http://www.w3.org/1999/xlink" version="1.1" x="0px" y="0px" viewBox="0 0 100 125" enable-background="new 0 0 100 100" xml:space="preserve"><path d="M52.719,27.861l2.801,6.572c0.533,0.191,1.045,0.395,1.545,0.635l6.586-2.709l3.91,3.913l-2.666,6.646  c0.234,0.494,0.428,0.994,0.615,1.514l6.605,2.758v5.531l-6.609,2.823c-0.184,0.513-0.371,1.017-0.605,1.514l2.723,6.603  l-3.91,3.912l-6.631-2.66c-0.494,0.241-1.012,0.445-1.543,0.639l-2.73,6.582h-5.529l-2.799-6.547  c-0.549-0.191-1.086-0.39-1.611-0.639l-6.527,2.689l-3.91-3.912l2.631-6.561c-0.258-0.533-0.473-1.082-0.676-1.645l-6.506-2.711  v-5.533l6.502-2.783c0.199-0.562,0.412-1.111,0.672-1.642l-2.68-6.52l3.91-3.913l6.57,2.645c0.523-0.254,1.055-0.456,1.604-0.648  l2.734-6.553H52.719 M49.957,58.296c4.576,0,8.291-3.715,8.291-8.3c0-4.579-3.715-8.3-8.291-8.3c-4.578,0-8.293,3.721-8.293,8.3  C41.664,54.582,45.379,58.296,49.957,58.296 M53.346,26.917h-0.627h-5.525h-0.633l-0.24,0.579l-2.574,6.166  c-0.309,0.117-0.615,0.234-0.914,0.369l-6.193-2.492l-0.582-0.234l-0.443,0.443l-3.908,3.913l-0.447,0.444l0.24,0.586l2.521,6.135  c-0.141,0.314-0.266,0.633-0.387,0.956l-6.125,2.62l-0.574,0.247v0.626v5.533v0.633l0.584,0.24l6.123,2.555  c0.123,0.32,0.25,0.641,0.391,0.956l-2.479,6.177l-0.23,0.584l0.439,0.441l3.908,3.912l0.449,0.448l0.584-0.241l6.148-2.533  c0.305,0.129,0.611,0.246,0.922,0.357l2.633,6.168l0.246,0.578h0.627h5.529h0.633l0.244-0.586l2.572-6.203  c0.289-0.11,0.572-0.229,0.85-0.348l6.25,2.504l0.584,0.232l0.441-0.441l3.912-3.916l0.443-0.445L68.5,63.295l-2.568-6.224  c0.117-0.269,0.223-0.543,0.326-0.817l6.23-2.66l0.578-0.247V52.72v-5.531v-0.634l-0.584-0.243l-6.225-2.598  c-0.104-0.277-0.215-0.549-0.332-0.821l2.512-6.27l0.234-0.579l-0.441-0.445l-3.91-3.914l-0.443-0.443l-0.586,0.242l-6.205,2.555  c-0.281-0.127-0.564-0.241-0.855-0.354L53.59,27.49L53.346,26.917L53.346,26.917z M49.957,57.352c-4.051,0-7.346-3.302-7.346-7.355  c0-4.055,3.295-7.353,7.346-7.353c4.053,0,7.348,3.298,7.348,7.353C57.305,54.05,54.01,57.352,49.957,57.352L49.957,57.352z"/></svg>