<svg xmlns:dc="http://purl.org/dc/elements/1.1/" xmlns:cc="http://creativecommons.org/ns#" xmlns:rdf="http://www.w3.org/1999/02/22-rdf-syntax-ns#" xmlns:svg="http://www.w3.org/2000/svg" xmlns="http://www.w3.org/2000/svg" xmlns:sodipodi="http://sodipodi.sourceforge.net/DTD/sodipodi-0.dtd" xmlns:inkscape="http://www.inkscape.org/namespaces/inkscape" version="1.1" x="0px" y="0px" viewBox="0 0 100 125"><g transform="translate(0,-952.36218)"><path style="color:#000000;enable-background:accumulate;" d="m 50,954.36215 c -1.1046,0 -2,0.8954 -2,2 l 0,8 c 0,1.1046 0.8954,2 2,2 1.1046,0 2,-0.8954 2,-2 l 0,-8 c 0,-1.1046 -0.8954,-2 -2,-2 z M 21.7188,966.0809 c -0.5119,0 -1.0157,0.20315 -1.4063,0.59375 -0.781,0.781 -0.781,2.0314 0,2.8125 l 5.6563,5.65625 c 0.7808,0.781 2.0314,0.781 2.8124,0 0.7811,-0.781 0.7811,-2.0314 0,-2.8125 l -5.6562,-5.65625 c -0.3905,-0.3906 -0.8945,-0.59375 -1.4062,-0.59375 z m 56.5624,0 c -0.5117,0 -1.0156,0.20315 -1.4062,0.59375 l -5.6562,5.65625 c -0.7811,0.7811 -0.7811,2.0315 0,2.8125 0.781,0.781 2.0315,0.781 2.8124,0 l 5.6563,-5.65625 c 0.781,-0.7811 0.781,-2.0315 0,-2.8125 -0.3906,-0.3906 -0.8943,-0.59375 -1.4063,-0.59375 z M 50,972.36215 c -12.1952,0 -24,9.46145 -24,22.84376 0,17.36379 13,20.99999 13,33.15629 l 22,0 c 0,-12.1563 13,-15.7925 13,-33.15629 0,-13.38231 -11.8048,-22.84376 -24,-22.84376 z m -40,21.99996 c -1.1046,0 -2,0.8954 -2,2 0,1.1046 0.8954,2 2,2 l 8,0 c 1.1046,0 2,-0.8954 2,-2 0,-1.1046 -0.8954,-2 -2,-2 l -8,0 z m 72,0 c -1.1046,0 -2,0.8954 -2,2 0,1.1046 0.8954,2 2,2 l 8,0 c 1.1046,0 2,-0.8954 2,-2 0,-1.1046 -0.8954,-2 -2,-2 l -8,0 z m -43,38.00009 0,4 22,0 0,-4 -22,0 z m 0,8 c 0,2.2981 1.8895,4 4,4 l 14,0 c 2.1105,0 4,-1.7019 4,-4 l -22,0 z m 7,6 c 0,2.216 1.784,4 4,4 2.216,0 4,-1.784 4,-4 l -8,0 z" fill="#000000" stroke="none" marker="none" visibility="visible" display="inline" overflow="visible"/></g></svg>