<svg xmlns="http://www.w3.org/2000/svg" xmlns:xlink="http://www.w3.org/1999/xlink" version="1.1" x="0px" y="0px" viewBox="0 0 100 125" enable-background="new 0 0 100 100" xml:space="preserve"><path d="M75.983,74.034c-1.222-11.188-10.934-17.867-25.98-17.867c-14.495,0-23.883,5.945-25.757,16.318  c-0.25,1.416-0.354,4.163-0.354,5.32c0,1.104,0.896,2,2,2s2-0.896,2-2c0-1.209,0.114-3.61,0.292-4.615  c2.047-11.331,14.549-13.022,21.819-13.022c6.146,0,20.595,1.394,22.003,14.292c0.025,0.28,0.068,2.006,0.103,4.763  c0.014,1.096,0.906,1.976,1.999,1.976c0.009,0,0.018,0,0.025,0c1.104-0.014,1.989-0.92,1.976-2.024  C76.083,77.12,76.041,74.563,75.983,74.034z M50.003,51.737c8.017,0,14.539-7.82,14.539-17.432c0-9.128-5.979-15.503-14.539-15.503  s-14.539,6.375-14.539,15.503C35.464,43.917,41.986,51.737,50.003,51.737z M50.003,22.803c6.304,0,10.539,4.623,10.539,11.503  c0,7.406-4.728,13.432-10.539,13.432s-10.539-6.025-10.539-13.432C39.464,27.425,43.699,22.803,50.003,22.803z"/><text x="0" y="115" fill="#000000" font-size="5px" font-weight="bold" font-family="'Helvetica Neue', Helvetica, Arial-Unicode, Arial, Sans-serif">Created by Kidiladon</text><text x="0" y="120" fill="#000000" font-size="5px" font-weight="bold" font-family="'Helvetica Neue', Helvetica, Arial-Unicode, Arial, Sans-serif">from the Noun Project</text></svg>