<svg xmlns="http://www.w3.org/2000/svg" xmlns:xlink="http://www.w3.org/1999/xlink" version="1.1" x="0px" y="0px" viewBox="206 206 100 125" enable-background="new 206 206 100 100" xml:space="preserve"><path d="M286.762,226.007h-61.524c-5.907,0-10.712,4.806-10.712,10.712v38.562c0,5.906,4.806,10.712,10.712,10.712h61.524  c5.906,0,10.712-4.806,10.712-10.712v-38.562C297.474,230.812,292.668,226.007,286.762,226.007z M225.238,228.149h61.524  c4.688,0,8.506,3.784,8.566,8.458L256,258.311l-39.329-21.704C216.731,231.933,220.55,228.149,225.238,228.149z M286.762,283.85  h-61.524c-4.726,0-8.57-3.845-8.57-8.569v-36.229L256,260.759l39.332-21.706v36.229C295.331,280.006,291.487,283.85,286.762,283.85z  "/></svg>