<svg xmlns:dc="http://purl.org/dc/elements/1.1/" xmlns:cc="http://creativecommons.org/ns#" xmlns:rdf="http://www.w3.org/1999/02/22-rdf-syntax-ns#" xmlns:svg="http://www.w3.org/2000/svg" xmlns="http://www.w3.org/2000/svg" xmlns:sodipodi="http://sodipodi.sourceforge.net/DTD/sodipodi-0.dtd" xmlns:inkscape="http://www.inkscape.org/namespaces/inkscape" version="1.1" x="0px" y="0px" viewBox="0 0 100 125"><g transform="translate(0,-952.3622)"><path style="color:#000000;enable-background:accumulate;" d="m 43.84375,958.36219 -3.03125,10.6875 c -2.77851,0.76546 -5.42381,1.85536 -7.875,3.25 l -9.71875,-5.40625 -8.6875,8.6875 5.40625,9.71875 c -1.39465,2.45119 -2.48453,5.09648 -3.25,7.875 l -10.6874999,3.03123 0,12.31258 10.6874999,3.0312 c 0.76547,2.7785 1.85535,5.4238 3.25,7.875 l -5.40625,9.7188 8.6875,8.6875 9.71875,-5.4063 c 2.45119,1.3946 5.09649,2.4845 7.875,3.25 l 3.03125,10.6875 12.3125,0 3.03125,-10.6875 c 2.77852,-0.7655 5.42381,-1.8554 7.875,-3.25 l 9.71875,5.4063 8.6875,-8.6875 -5.40625,-9.7188 c 1.39463,-2.4512 2.48454,-5.0965 3.25,-7.875 L 94,1008.5185 94,996.20592 83.3125,993.17469 c -0.76546,-2.77852 -1.85537,-5.42381 -3.25,-7.875 l 5.40625,-9.71875 -8.6875,-8.6875 -9.71875,5.40625 c -2.45119,-1.39464 -5.09648,-2.48454 -7.875,-3.25 l -3.03125,-10.6875 -12.3125,0 z m 6.15625,23 c 11.5743,0 21,9.42575 21,21.00001 0,11.5742 -9.4257,21 -21,21 -11.5743,0 -21,-9.4258 -21,-21 0,-11.57426 9.4257,-21.00001 21,-21.00001 z m 0,4 c -9.41252,0 -17,7.58753 -17,17.00001 0,9.4125 7.58748,17 17,17 9.41252,0 17,-7.5875 17,-17 0,-9.41248 -7.58748,-17.00001 -17,-17.00001 z" fill="#000000" stroke="none" marker="none" visibility="visible" display="inline" overflow="visible"/></g></svg>