<svg xmlns="http://www.w3.org/2000/svg" xmlns:xlink="http://www.w3.org/1999/xlink" version="1.1" x="0px" y="0px" viewBox="0 0 30.859 28.61875" style="enable-background:new 0 0 30.859 22.895;" xml:space="preserve"><g><path d="M10.123,12.069c0.399-0.372,0.4-0.981,0.002-1.354L0.479,1.68C0.174,2.193,0,2.793,0,3.432v16.023   c0,0.6,0.152,1.164,0.424,1.656L10.123,12.069z"/><path d="M19.684,13.15c-0.398-0.373-1.051-0.374-1.451-0.001l-2.035,1.897c-0.398,0.372-1.052,0.372-1.449-0.001l-2.128-1.994   c-0.397-0.373-1.05-0.373-1.45-0.002l-9.814,9.146c0.571,0.438,1.283,0.699,2.057,0.699h23.041h0.992   c0.732,0,1.41-0.236,1.965-0.631L19.684,13.15z"/><path d="M30.436,1.776l-9.701,9.043c-0.398,0.371-0.4,0.98-0.002,1.354l9.647,9.036c0.305-0.516,0.479-1.115,0.479-1.754V3.432   C30.859,2.833,30.705,2.268,30.436,1.776z"/><path d="M14.748,13.087c0.399,0.373,1.051,0.374,1.451,0.002L29.5,0.693C28.93,0.258,28.219,0,27.445,0H3.412   c-0.733,0-1.41,0.232-1.967,0.627L14.748,13.087z"/></g></svg>