<svg xmlns:dc="http://purl.org/dc/elements/1.1/" xmlns:cc="http://creativecommons.org/ns#" xmlns:rdf="http://www.w3.org/1999/02/22-rdf-syntax-ns#" xmlns:svg="http://www.w3.org/2000/svg" xmlns="http://www.w3.org/2000/svg" xmlns:sodipodi="http://sodipodi.sourceforge.net/DTD/sodipodi-0.dtd" xmlns:inkscape="http://www.inkscape.org/namespaces/inkscape" version="1.1" x="0px" y="0px" viewBox="0 0 100 125"><g transform="translate(0,-952.36218)"><path d="m 18.0004,960.36214 44.8312,0.938 c 4.0678,0.4526 6.5215,3.3477 7.6801,6.5961 0.8286,2.6967 1.1134,5.3155 -0.281,7.7216 -0.4784,0.4839 -0.2419,1.4496 0.4058,1.6569 3.7499,1.1741 8.0873,-0.2963 11.3015,-3.2512 L 82,1044.3622 c -17.0095,0 -48.0083,10e-5 -64,0 z m 50.8254,1.5006 c 2.6374,0.6577 5.3104,1.8688 7.5551,3.3138 2.3545,1.6245 5.6508,3.1446 5.5259,5.9084 -2.4569,3.0174 -6.2016,4.7035 -9.3346,4.4079 1.0522,-2.675 0.6552,-5.8337 -0.1874,-8.2531 -0.7033,-1.972 -1.882,-3.9082 -3.559,-5.377 z m -32.8117,13.4738 0,2.0007 27.9727,0 0,-2.0007 z m -11.0205,14.0052 0,2.0007 21.9785,0 0,-2.0007 z m 27.9727,0 0,2.0007 21.9786,0 0,-2.0007 z m -27.9727,8.003 0,2.0007 21.9785,0 0,-2.0007 z m 27.9727,0 0,2.0007 21.9786,0 0,-2.0007 z m -27.9727,8.00286 0,2.0009 21.9785,0 0,-2.0009 z m 27.9727,0 0,2.0009 21.9786,0 0,-2.0009 z m -27.9727,8.0031 0,2.0007 21.9785,0 0,-2.0007 z m 27.9727,0 0,2.0007 21.9786,0 0,-2.0007 z m -27.9727,8.003 0,2.0007 21.9785,0 0,-2.0007 z m 27.9727,0 0,2.0007 21.9786,0 0,-2.0007 z m -27.9727,8.0029 0,2.0008 21.9785,0 0,-2.0008 z m 27.9727,0 0,2.0008 21.9786,0 0,-2.0008 z" style="text-indent:0;text-transform:none;direction:ltr;block-progression:tb;baseline-shift:baseline;color:#000000;enable-background:accumulate;" fill="#000000" fill-opacity="1" stroke="none" marker="none" visibility="visible" display="inline" overflow="visible"/></g></svg>