<svg xmlns="http://www.w3.org/2000/svg" xmlns:xlink="http://www.w3.org/1999/xlink" version="1.1" x="0px" y="0px" viewBox="0 0 100 125" enable-background="new 0 0 100 100" xml:space="preserve"><g><path fill="none" d="M93.224,26.401c-0.266-0.166-0.573-0.256-0.886-0.256H7.663c-0.313,0-0.619,0.09-0.886,0.255l43.226,30.01   L93.224,26.401z"/><path fill="none" d="M6.13,27.1c-0.106,0.205-0.187,0.46-0.187,0.764v44.272c0,0.273,0.07,0.544,0.201,0.788l32.992-22.909   L6.13,27.1z"/><path fill="none" d="M60.041,50.59l-9.769,6.783c-0.081,0.056-0.175,0.084-0.269,0.084s-0.188-0.028-0.269-0.084l-9.77-6.783   L6.802,73.615c0.26,0.155,0.556,0.24,0.86,0.24h84.675c0.31,0,0.605-0.083,0.865-0.24l-13.449-9.338L60.041,50.59z"/><path fill="none" d="M60.868,50.015L93.86,72.923c0.13-0.242,0.197-0.509,0.197-0.787V27.864c0-0.268-0.064-0.527-0.186-0.764   L60.868,50.015z"/><g><path fill="none" d="M93.224,26.401c-0.266-0.166-0.573-0.256-0.886-0.256H7.663c-0.313,0-0.619,0.09-0.886,0.255l43.226,30.01    L93.224,26.401z"/><path fill="none" d="M6.13,27.1c-0.106,0.205-0.187,0.46-0.187,0.764v44.272c0,0.273,0.07,0.544,0.201,0.788l32.992-22.909    L6.13,27.1z"/><path fill="none" d="M60.041,50.589l-9.769,6.783c-0.081,0.056-0.175,0.084-0.269,0.084s-0.188-0.028-0.269-0.084l-9.77-6.783    L6.802,73.615c0.26,0.155,0.556,0.24,0.86,0.24h84.675c0.31,0,0.605-0.083,0.865-0.24l-13.449-9.338L60.041,50.589z"/><path fill="none" d="M60.868,50.015L93.86,72.923c0.13-0.242,0.197-0.509,0.197-0.787V27.864c0-0.268-0.064-0.527-0.186-0.764    L60.868,50.015z"/><path d="M94.349,26.138c-0.001-0.001-0.001-0.002-0.002-0.003c-0.512-0.593-1.244-0.934-2.01-0.934H7.663    c-0.763,0-1.495,0.339-2.006,0.93c-0.001,0.001-0.003,0.002-0.004,0.003C5.232,26.624,5,27.238,5,27.864v44.272    c0,0.637,0.239,1.257,0.673,1.748c0.001,0.001,0.001,0.003,0.003,0.005c0.507,0.578,1.232,0.91,1.988,0.91h84.675    c0.755,0,1.48-0.331,1.988-0.909c0,0,0,0,0,0l0,0c0,0,0,0,0.001-0.001l0.001-0.001C94.761,73.397,95,72.776,95,72.136V27.864    C95,27.237,94.769,26.625,94.349,26.138z M7.663,26.145h84.675c0.313,0,0.62,0.09,0.886,0.256L50.002,56.411L6.777,26.4    C7.044,26.235,7.349,26.145,7.663,26.145z M5.943,72.136V27.864c0-0.304,0.081-0.559,0.187-0.764l33.006,22.915L6.144,72.924    C6.013,72.679,5.943,72.409,5.943,72.136z M92.338,73.855H7.663c-0.304,0-0.601-0.085-0.86-0.24l33.16-23.026l9.77,6.783    c0.081,0.056,0.175,0.084,0.269,0.084s0.188-0.028,0.269-0.084l9.769-6.783l19.713,13.688l13.449,9.338    C92.943,73.772,92.648,73.855,92.338,73.855z M94.057,72.136c0,0.278-0.067,0.545-0.197,0.787L60.868,50.015L93.871,27.1    c0.123,0.237,0.186,0.495,0.186,0.764V72.136z"/></g></g></svg>