<svg xmlns="http://www.w3.org/2000/svg" xmlns:xlink="http://www.w3.org/1999/xlink" version="1.2" baseProfile="tiny" x="0px" y="0px" viewBox="0 0 90 112.5" xml:space="preserve"><path d="M72.3,21.2L55,4.6c-0.1-0.1-0.4-0.2-0.5-0.1c-0.2,0.1-0.3,0.3-0.3,0.5l0,16.6c0,0.1,0.1,0.3,0.1,0.4  c0.1,0.1,0.2,0.1,0.4,0.1h13.1c0.3,0,0.5-0.2,0.5-0.5S68,21,67.7,21H55.1l0-14.9l16.3,15.6v62.8H18.6V5.4H51c0.3,0,0.5-0.2,0.5-0.5  S51.3,4.4,51,4.4H18.1c-0.3,0-0.5,0.2-0.5,0.5v80.1c0,0.3,0.2,0.5,0.5,0.5h53.8c0.3,0,0.5-0.2,0.5-0.5V21.5  C72.4,21.4,72.4,21.3,72.3,21.2z"/><path d="M23.5,18h24.8c0.3,0,0.5-0.2,0.5-0.5S48.5,17,48.3,17H23.5c-0.3,0-0.5,0.2-0.5,0.5S23.2,18,23.5,18z"/><path d="M66.5,30.5h-43c-0.3,0-0.5,0.2-0.5,0.5s0.2,0.5,0.5,0.5h43c0.3,0,0.5-0.2,0.5-0.5S66.8,30.5,66.5,30.5z"/><path d="M66.5,44h-43c-0.3,0-0.5,0.2-0.5,0.5s0.2,0.5,0.5,0.5h43c0.3,0,0.5-0.2,0.5-0.5S66.8,44,66.5,44z"/><path d="M67,58c0-0.3-0.2-0.5-0.5-0.5h-43c-0.3,0-0.5,0.2-0.5,0.5s0.2,0.5,0.5,0.5h43C66.8,58.5,67,58.3,67,58z"/><path d="M23.5,71c-0.3,0-0.5,0.2-0.5,0.5s0.2,0.5,0.5,0.5h11c0.3,0,0.5-0.2,0.5-0.5S34.8,71,34.5,71H23.5z"/></svg>