<svg xmlns="http://www.w3.org/2000/svg" xmlns:xlink="http://www.w3.org/1999/xlink" xml:space="preserve" style="shape-rendering:geometricPrecision;text-rendering:geometricPrecision;image-rendering:optimizeQuality;" viewBox="0 0 6827 8533.75" x="0px" y="0px" fill-rule="evenodd" clip-rule="evenodd"><defs><style type="text/css">
   
    .fil1 {fill:none}
    .fil0 {fill:black;fill-rule:nonzero}
   
  </style></defs><g><path class="fil0" d="M3413 1737c373,0 711,151 956,396 245,245 396,582 396,956 0,362 -151,610 -319,884 -112,184 -231,379 -314,628 -20,60 -14,337 -11,513 1,55 2,100 2,120 0,336 -185,551 -421,645 -91,36 -190,55 -288,55 -98,0 -197,-18 -288,-55 -236,-94 -421,-309 -421,-645 0,-18 1,-63 2,-117 2,-124 6,-300 0,-416 -1,-24 -3,-45 -5,-64 -2,-16 -4,-28 -6,-35 -83,-249 -203,-445 -315,-629 -167,-274 -319,-522 -319,-884 0,-373 151,-711 396,-956 245,-245 582,-396 956,-396zm899 452c-230,-230 -548,-372 -899,-372 -351,0 -669,142 -899,372 -230,230 -372,548 -372,899 0,340 146,579 307,843 114,187 236,387 322,646 4,13 7,30 10,51 2,19 4,42 5,69 5,118 2,296 0,421 -1,45 -2,82 -2,116 0,298 162,488 370,571 81,33 170,49 259,49 89,0 178,-16 259,-49 208,-83 370,-273 370,-571 0,-34 -1,-73 -2,-118 -4,-181 -9,-467 15,-539 86,-258 208,-457 322,-644 161,-264 307,-503 307,-843 0,-351 -142,-669 -372,-899z"/><path class="fil0" d="M4081 5059c22,0 40,18 40,40 0,22 -18,40 -40,40l-1334 0c-22,0 -40,-18 -40,-40 0,-22 18,-40 40,-40l1334 0z"/><path class="fil0" d="M3373 4421c0,-22 18,-40 40,-40 22,0 40,18 40,40l0 679c0,22 -18,40 -40,40 -22,0 -40,-18 -40,-40l0 -679z"/><path class="fil0" d="M3807 3970c16,-16 41,-16 57,0 16,16 16,41 0,57l-422 422c-16,16 -41,16 -57,0l-422 -422c-16,-16 -16,-41 0,-57 16,-16 41,-16 57,0l394 394 394 -394z"/><path class="fil0" d="M3373 933c0,-22 18,-40 40,-40 22,0 40,18 40,40l0 337c0,22 -18,40 -40,40 -22,0 -40,-18 -40,-40l0 -337z"/><path class="fil0" d="M4457 1202c11,-19 35,-26 55,-15 19,11 26,35 15,55l-168 292c-11,19 -35,26 -55,15 -19,-11 -26,-35 -15,-55l168 -292z"/><path class="fil0" d="M5260 1977c19,-11 43,-5 55,15 11,19 5,43 -15,55l-292 168c-19,11 -43,5 -55,-15 -11,-19 -5,-43 15,-55l292 -168z"/><path class="fil0" d="M5569 3049c22,0 40,18 40,40 0,22 -18,40 -40,40l-337 0c-22,0 -40,-18 -40,-40 0,-22 18,-40 40,-40l337 0z"/><path class="fil0" d="M1258 3129c-22,0 -40,-18 -40,-40 0,-22 18,-40 40,-40l337 0c22,0 40,18 40,40 0,22 -18,40 -40,40l-337 0z"/><path class="fil0" d="M1527 2046c-19,-11 -26,-35 -15,-55 11,-19 35,-26 55,-15l292 168c19,11 26,35 15,55 -11,19 -35,26 -55,15l-292 -168z"/><path class="fil0" d="M2301 1242c-11,-19 -5,-43 15,-55 19,-11 43,-5 55,15l168 292c11,19 5,43 -15,55 -19,11 -43,5 -55,-15l-168 -292z"/><path class="fil0" d="M3453 4421c0,22 -18,40 -40,40 -22,0 -40,-18 -40,-40l0 -502c0,-22 18,-40 40,-40 22,0 40,18 40,40l0 502z"/></g><rect class="fil1" width="6827" height="6827"/></svg>