<svg xmlns="http://www.w3.org/2000/svg" xmlns:xlink="http://www.w3.org/1999/xlink" version="1.1" x="0px" y="0px" viewBox="0 0 100 125" enable-background="new 0 0 100 100" xml:space="preserve"><g><path fill="none" d="M50,42.784c-3.882,0-7.04,3.237-7.04,7.218c0,3.977,3.158,7.214,7.04,7.214c3.911,0,7.216-3.303,7.216-7.214   C57.216,46.089,53.911,42.784,50,42.784z"/><path fill="none" d="M50,31.923c-9.967,0-18.076,8.11-18.076,18.079c0,9.967,8.109,18.077,18.076,18.077   c9.969,0,18.079-8.109,18.079-18.077C68.079,39.864,60.138,31.923,50,31.923z M50,58.205c-4.427,0-8.029-3.68-8.029-8.203   c0-4.525,3.602-8.207,8.029-8.207c4.448,0,8.205,3.758,8.205,8.207C58.205,54.449,54.448,58.205,50,58.205z"/><path fill="none" d="M92.67,42.952c-0.004-0.001-0.008-0.002-0.012-0.003l-10.69-2.101c-0.175-0.034-0.318-0.159-0.374-0.328   c-0.737-2.217-1.61-4.253-2.593-6.052c-0.09-0.166-0.079-0.369,0.03-0.523l6.308-8.936c0.378-0.632,0.255-1.619-0.295-2.17   l-7.71-7.708c-0.55-0.55-1.537-0.674-2.199-0.276l-8.913,6.117c-0.152,0.107-0.352,0.117-0.516,0.026   c-2.005-1.093-4.085-1.926-6.016-2.407c-0.189-0.047-0.333-0.202-0.367-0.394L57.4,7.335c-0.122-0.604-0.949-1.346-1.792-1.346   H44.92c-0.845,0-1.672,0.742-1.793,1.356l-1.926,10.677c-0.033,0.182-0.165,0.33-0.341,0.384c-2.113,0.651-4.209,1.502-6.407,2.6   c-0.159,0.079-0.349,0.069-0.497-0.032l-9.111-6.133c-0.583-0.573-1.676-0.386-2.178,0.115l-7.529,7.704   c-0.554,0.556-0.679,1.543-0.281,2.204l6.289,9.085c0.113,0.163,0.117,0.379,0.011,0.547c-1.192,1.876-1.894,3.982-2.573,6.019   c-0.057,0.168-0.201,0.299-0.376,0.333L7.515,42.949C6.641,43.1,5.99,43.794,5.99,44.568v10.863c0,0.778,0.65,1.473,1.512,1.617   l10.705,2.107c0.174,0.034,0.317,0.159,0.373,0.328c0.696,2.084,1.571,4.184,2.601,6.241c0.08,0.161,0.067,0.353-0.035,0.501   l-6.132,8.935c-0.424,0.711-0.38,1.677,0.118,2.173l7.708,7.712c0.507,0.506,1.448,0.696,2.146,0.137l9.145-6.156   c0.084-0.056,0.18-0.084,0.276-0.084c0.081,0,0.163,0.02,0.237,0.061c1.88,1.026,3.971,1.897,6.216,2.591   c0.176,0.054,0.308,0.203,0.34,0.384l1.927,10.687c0.126,0.636,0.973,1.344,1.617,1.344h10.863c0.843,0,1.67-0.741,1.794-1.354   l1.922-10.85c0.031-0.179,0.158-0.326,0.329-0.383l0.112-0.038c2.01-0.675,4.089-1.372,5.942-2.383   c0.162-0.088,0.359-0.078,0.511,0.022l8.938,5.958c0.731,0.582,1.672,0.392,2.179-0.113l7.528-7.708   c0.726-0.584,0.679-1.541,0.281-2.204l-6.117-8.908c-0.106-0.154-0.116-0.354-0.026-0.518c0.978-1.789,1.851-3.824,2.593-6.05   c0.056-0.169,0.199-0.295,0.373-0.328l10.69-2.105c0.814-0.136,1.352-0.786,1.352-1.62V44.568   C94.01,43.739,93.471,43.089,92.67,42.952z M50,69.067c-10.513,0-19.065-8.552-19.065-19.066c0-10.514,8.552-19.068,19.065-19.068   c10.692,0,19.068,8.376,19.068,19.068C69.068,60.515,60.514,69.067,50,69.067z"/><path d="M50,41.795c-4.427,0-8.029,3.682-8.029,8.207c0,4.523,3.602,8.203,8.029,8.203c4.448,0,8.205-3.756,8.205-8.203   C58.205,45.553,54.448,41.795,50,41.795z M50,57.216c-3.882,0-7.04-3.237-7.04-7.214c0-3.98,3.158-7.218,7.04-7.218   c3.911,0,7.216,3.305,7.216,7.218C57.216,53.913,53.911,57.216,50,57.216z"/><path d="M92.843,41.978l-10.402-2.044c-0.699-2.057-1.513-3.961-2.425-5.668l6.151-8.716c0.637-1.06,0.456-2.526-0.423-3.408   l-7.711-7.709c-0.879-0.878-2.345-1.063-3.432-0.409l-8.689,5.962c-1.887-1.005-3.835-1.787-5.67-2.275L58.371,7.152   C58.14,6.005,56.849,5,55.608,5H44.92c-1.245,0-2.536,1.006-2.765,2.161l-1.874,10.39c-1.985,0.628-3.957,1.429-6.012,2.442   l-8.799-5.912c-0.937-0.936-2.653-0.675-3.507,0.18l-7.53,7.704c-0.88,0.884-1.063,2.349-0.408,3.435l6.122,8.844   c-1.099,1.816-1.775,3.774-2.414,5.689L7.337,41.977c-1.331,0.228-2.335,1.343-2.335,2.591v10.863c0,1.255,1.005,2.369,2.323,2.589   l10.41,2.049c0.665,1.95,1.482,3.911,2.431,5.836l-5.983,8.721c-0.675,1.127-0.567,2.592,0.251,3.407l7.708,7.712   c0.929,0.926,2.451,1.02,3.43,0.234l8.865-5.966c1.787,0.952,3.75,1.77,5.844,2.436l1.876,10.4c0.219,1.105,1.477,2.15,2.589,2.15   h10.863c1.242,0,2.533-1.004,2.765-2.16l1.873-10.572c1.906-0.64,3.865-1.308,5.669-2.255l8.657,5.769   c1.011,0.809,2.532,0.718,3.465-0.215l7.487-7.672c1.124-0.898,1.086-2.413,0.451-3.47l-5.962-8.685   c0.908-1.699,1.724-3.604,2.427-5.67l10.394-2.047c1.274-0.212,2.164-1.279,2.164-2.592V44.568   C94.999,43.262,94.112,42.198,92.843,41.978z M94.01,55.431c0,0.833-0.538,1.484-1.352,1.62l-10.69,2.105   c-0.174,0.034-0.317,0.159-0.373,0.328c-0.742,2.226-1.615,4.261-2.593,6.05c-0.09,0.164-0.08,0.364,0.026,0.518l6.117,8.908   c0.398,0.664,0.444,1.62-0.281,2.204l-7.528,7.708c-0.508,0.505-1.449,0.695-2.179,0.113l-8.938-5.958   c-0.152-0.1-0.349-0.11-0.511-0.022c-1.852,1.01-3.931,1.708-5.942,2.383l-0.112,0.038c-0.171,0.057-0.298,0.204-0.329,0.383   l-1.922,10.85c-0.123,0.613-0.951,1.354-1.794,1.354H44.745c-0.644,0-1.491-0.708-1.617-1.344L41.201,81.98   c-0.033-0.182-0.164-0.33-0.34-0.384c-2.245-0.694-4.336-1.566-6.216-2.591c-0.074-0.041-0.156-0.061-0.237-0.061   c-0.097,0-0.193,0.028-0.276,0.084l-9.145,6.156c-0.697,0.559-1.639,0.369-2.146-0.137l-7.708-7.712   c-0.498-0.496-0.542-1.462-0.118-2.173l6.132-8.935c0.102-0.149,0.115-0.34,0.035-0.501c-1.029-2.057-1.904-4.157-2.601-6.241   c-0.056-0.169-0.199-0.295-0.373-0.328L7.502,57.048C6.64,56.904,5.99,56.208,5.99,55.431V44.568c0-0.774,0.651-1.468,1.525-1.619   l10.691-2.101c0.175-0.034,0.319-0.165,0.376-0.333c0.679-2.037,1.381-4.143,2.573-6.019c0.107-0.168,0.102-0.383-0.011-0.547   l-6.289-9.085c-0.398-0.661-0.273-1.648,0.281-2.204l7.529-7.704c0.502-0.501,1.596-0.688,2.178-0.115l9.111,6.133   c0.148,0.1,0.339,0.111,0.497,0.032c2.198-1.098,4.294-1.949,6.407-2.6c0.177-0.054,0.309-0.203,0.341-0.384l1.926-10.677   c0.121-0.614,0.948-1.356,1.793-1.356h10.688c0.842,0,1.67,0.743,1.792,1.346l1.924,10.862c0.034,0.192,0.178,0.347,0.367,0.394   c1.931,0.481,4.011,1.313,6.016,2.407c0.164,0.091,0.364,0.081,0.516-0.026l8.913-6.117c0.662-0.398,1.649-0.273,2.199,0.276   l7.71,7.708c0.549,0.552,0.672,1.539,0.295,2.17l-6.308,8.936c-0.109,0.154-0.12,0.356-0.03,0.523   c0.984,1.798,1.856,3.835,2.593,6.052c0.056,0.169,0.199,0.295,0.374,0.328l10.69,2.101c0.004,0.001,0.008,0.002,0.012,0.003   c0.801,0.136,1.339,0.786,1.339,1.616V55.431z"/><path d="M50,30.934c-10.513,0-19.065,8.554-19.065,19.068c0,10.513,8.552,19.066,19.065,19.066   c10.514,0,19.068-8.552,19.068-19.066C69.068,39.309,60.692,30.934,50,30.934z M50,68.078c-9.967,0-18.076-8.109-18.076-18.077   c0-9.969,8.109-18.079,18.076-18.079c10.138,0,18.079,7.941,18.079,18.079C68.079,59.969,59.969,68.078,50,68.078z"/></g></svg>