<svg xmlns="http://www.w3.org/2000/svg" xmlns:xlink="http://www.w3.org/1999/xlink" version="1.1" x="0px" y="0px" viewBox="-255 347 100 125" enable-background="new -255 347 100 100" xml:space="preserve"><path d="M-204.6,383.1c0-1.1,0.9-2,2-2l0,0c1.1,0,2,0.9,2,2c0,1.1-0.9,2-2,2c-0.1,0-0.1,0-0.2,0  C-203.8,384.9-204.6,384.1-204.6,383.1z M-197.7,386c-1-0.4-1.5-1.6-1-2.6c0.4-1,1.6-1.5,2.6-1c1,0.4,1.5,1.6,1,2.6  c-0.4,0.8-1.2,1.3-2,1.2C-197.3,386.1-197.5,386.1-197.7,386z M-210.1,385.1c-0.5-1,0-2.2,1-2.6c1-0.5,2.2,0,2.6,1  c0.5,1,0,2.2-1,2.6c-0.3,0.2-0.7,0.2-1,0.2C-209.1,386.2-209.8,385.8-210.1,385.1z M-193.7,388.9c-0.7-0.8-0.7-2.1,0.1-2.8  c0.8-0.7,2.1-0.7,2.8,0.1c0.7,0.8,0.7,2.1-0.1,2.8c-0.4,0.4-1,0.6-1.5,0.5C-192.9,389.5-193.3,389.3-193.7,388.9z M-214.2,389.2  c-0.8-0.7-0.9-2-0.2-2.8c0.7-0.8,2-0.9,2.8-0.2c0.8,0.7,0.9,2,0.2,2.8c-0.4,0.5-1.1,0.7-1.7,0.7  C-213.5,389.7-213.9,389.5-214.2,389.2z M-191.2,393.1c-0.4-1,0.2-2.2,1.2-2.5c1-0.3,2.2,0.2,2.5,1.2c0.4,1-0.2,2.2-1.2,2.5  c-0.3,0.1-0.6,0.1-0.8,0.1C-190.2,394.4-190.9,393.9-191.2,393.1z M-216.3,394.7c-1-0.3-1.6-1.4-1.3-2.5c0.3-1,1.4-1.6,2.5-1.3  c1.1,0.3,1.6,1.4,1.3,2.5c-0.3,0.9-1.2,1.5-2.1,1.4C-216.1,394.8-216.2,394.7-216.3,394.7z M-190.6,398.1L-190.6,398.1L-190.6,398.1  c0.1-1.1,1.1-1.9,2.2-1.8c1.1,0.1,1.9,1.1,1.8,2.2l0,0.1c-0.1,1.1-1.1,1.9-2.2,1.8C-189.9,400.2-190.7,399.2-190.6,398.1z   M-218.3,398.8L-218.3,398.8c-0.1-1.1,0.7-2.1,1.7-2.2c1.1-0.1,2.1,0.7,2.2,1.8c0.1,1.1-0.7,2.1-1.8,2.2c-0.1,0-0.3,0-0.4,0  C-217.4,400.4-218.2,399.7-218.3,398.8z M-191.3,405.6c-1-0.5-1.3-1.8-0.7-2.7c0.5-1,1.8-1.3,2.7-0.8c1,0.5,1.3,1.8,0.7,2.7  c-0.4,0.7-1.2,1.1-1.9,1C-190.8,405.8-191.1,405.7-191.3,405.6z M-216.2,405.1c-0.6-0.9-0.2-2.2,0.7-2.7c0.9-0.6,2.2-0.2,2.7,0.7  c0.6,0.9,0.2,2.2-0.7,2.7c-0.4,0.2-0.8,0.3-1.2,0.3C-215.3,406-215.8,405.6-216.2,405.1z M-195.8,409.3c-0.7-0.9-0.5-2.1,0.4-2.8  c0.9-0.7,2.1-0.5,2.8,0.4c0.7,0.9,0.5,2.1-0.4,2.8c-0.4,0.3-0.9,0.4-1.4,0.4C-194.9,410.1-195.4,409.8-195.8,409.3z M-211.7,409.9  c-0.9-0.6-1.1-1.9-0.5-2.8c0.6-0.9,1.9-1.1,2.8-0.5c0.9,0.6,1.1,1.9,0.5,2.8c-0.4,0.6-1.1,0.9-1.8,0.8  C-211.1,410.3-211.4,410.1-211.7,409.9z M-201.4,411c-0.2-1.1,0.4-2.1,1.5-2.4c1.1-0.2,2.1,0.4,2.4,1.5c0.2,1.1-0.4,2.1-1.5,2.4l0,0  c-0.2,0-0.4,0.1-0.6,0C-200.5,412.5-201.2,411.9-201.4,411z M-205.6,412.6c-1.1-0.2-1.8-1.3-1.6-2.3c0.2-1.1,1.3-1.8,2.3-1.6  c1.1,0.2,1.8,1.3,1.6,2.3c-0.2,1-1.1,1.7-2.1,1.6C-205.5,412.6-205.6,412.6-205.6,412.6z"/><path d="M-204.7,375.5c0-1.1,0.9-2,2-2c1.1,0,2,0.9,2,2c0,1.1-0.9,2-2,2c-0.1,0-0.1,0-0.2,0C-203.9,377.4-204.7,376.5-204.7,375.5z   M-194.7,379.1c-1-0.4-1.5-1.6-1.1-2.6c0.4-1,1.6-1.5,2.6-1.1c1,0.4,1.5,1.6,1.1,2.6c-0.4,0.8-1.2,1.3-2,1.2  C-194.3,379.2-194.5,379.2-194.7,379.1z M-213.2,378.3c-0.5-1,0-2.2,1-2.7c1-0.5,2.2,0,2.7,1c0.5,1,0,2.2-1,2.7  c-0.3,0.2-0.7,0.2-1,0.2C-212.3,379.4-212.9,378.9-213.2,378.3z M-188.1,383.8c-0.8-0.8-0.7-2.1,0.1-2.8c0.8-0.7,2.1-0.7,2.8,0.1  c0.8,0.8,0.7,2.1-0.1,2.8c-0.4,0.4-1,0.6-1.6,0.5C-187.3,384.4-187.8,384.1-188.1,383.8z M-219.9,384.3c-0.8-0.7-0.9-2-0.2-2.8  c0.7-0.8,2-0.9,2.8-0.2c0.8,0.7,0.9,2,0.2,2.8c-0.4,0.5-1.1,0.7-1.7,0.7C-219.2,384.7-219.6,384.5-219.9,384.3z M-184,390.7  c-0.4-1.1,0.2-2.2,1.3-2.5c1.1-0.4,2.2,0.2,2.5,1.3c0.4,1.1-0.2,2.2-1.3,2.5c-0.3,0.1-0.6,0.1-0.8,0.1  C-183.1,392-183.7,391.5-184,390.7z M-223.6,392.4c-1.1-0.3-1.7-1.5-1.3-2.5c0.3-1.1,1.5-1.7,2.5-1.3c1.1,0.3,1.6,1.5,1.3,2.5  c-0.3,0.9-1.2,1.5-2.1,1.4C-223.3,392.5-223.4,392.5-223.6,392.4z M-183.1,398.8L-183.1,398.8L-183.1,398.8L-183.1,398.8  c0.1-1.2,1.1-2,2.2-1.9c1.1,0.1,1.9,1.1,1.8,2.2l0,0l0,0c-0.1,1.1-1.1,1.9-2.2,1.8C-182.4,400.9-183.2,400-183.1,398.8z   M-225.8,399.6L-225.8,399.6c-0.1-1.1,0.7-2.1,1.8-2.2c1.1-0.1,2.1,0.7,2.2,1.8c0.1,1.1-0.7,2.1-1.8,2.2c-0.1,0-0.3,0-0.4,0  C-224.9,401.3-225.7,400.6-225.8,399.6z M-184.8,409.3c-1-0.5-1.3-1.8-0.8-2.7l0,0c0.5-1,1.8-1.3,2.7-0.8c1,0.5,1.3,1.8,0.8,2.7  c-0.4,0.7-1.2,1.1-1.9,1C-184.2,409.5-184.5,409.5-184.8,409.3z M-222.7,408.9c-0.6-1-0.2-2.2,0.7-2.8c1-0.6,2.2-0.2,2.8,0.7  c0.6,1,0.2,2.2-0.7,2.8c-0.4,0.2-0.8,0.3-1.2,0.3C-221.8,409.8-222.4,409.5-222.7,408.9z M-191.3,415.4c-0.7-0.9-0.5-2.2,0.4-2.8  c0.9-0.7,2.2-0.5,2.8,0.4c0.7,0.9,0.5,2.2-0.4,2.8c-0.4,0.3-0.9,0.4-1.4,0.4C-190.4,416.2-191,415.9-191.3,415.4z M-216.1,416.1  c-0.9-0.6-1.1-1.9-0.5-2.8c0.6-0.9,1.9-1.1,2.8-0.5c0.9,0.6,1.1,1.9,0.5,2.8c-0.4,0.6-1.1,0.9-1.8,0.8  C-215.5,416.4-215.8,416.3-216.1,416.1z M-199.8,418.4c-0.2-1.1,0.4-2.2,1.5-2.4l0,0c1.1-0.2,2.2,0.4,2.4,1.5  c0.2,1.1-0.4,2.2-1.5,2.4c-0.2,0.1-0.4,0.1-0.6,0C-198.9,419.9-199.6,419.3-199.8,418.4z M-207.1,420L-207.1,420  c-1.1-0.2-1.8-1.3-1.6-2.4c0.2-1.1,1.3-1.8,2.4-1.6c1.1,0.2,1.8,1.3,1.6,2.4c-0.2,1-1.2,1.7-2.2,1.6C-207,420-207.1,420-207.1,420z"/><path d="M-204.8,367.6c0-1.1,0.9-2,2-2c1.1,0,2,0.9,2,2c0,1.1-0.9,2-2,2c-0.1,0-0.1,0-0.2,0C-204,369.5-204.8,368.7-204.8,367.6z   M-191.6,371.9L-191.6,371.9c-1-0.4-1.5-1.6-1.1-2.7c0.4-1,1.6-1.5,2.7-1.1c1,0.4,1.5,1.6,1.1,2.7c-0.4,0.8-1.2,1.3-2.1,1.2  C-191.2,372-191.4,372-191.6,371.9z M-216.5,371.1c-0.5-1,0-2.2,1-2.7c1-0.5,2.2,0,2.7,1c0.5,1,0,2.2-1,2.7c-0.3,0.2-0.7,0.2-1,0.2  C-215.6,372.2-216.2,371.8-216.5,371.1z M-182.4,378.5c-0.8-0.8-0.7-2.1,0.1-2.9c0.8-0.8,2.1-0.7,2.9,0.1c0.8,0.8,0.7,2.1-0.1,2.9  c-0.4,0.4-1,0.6-1.6,0.5C-181.6,379.1-182,378.8-182.4,378.5z M-225.8,379.1c-0.8-0.7-0.9-2-0.2-2.9c0.7-0.8,2-0.9,2.9-0.2  c0.8,0.7,0.9,2,0.2,2.9c-0.5,0.5-1.1,0.7-1.7,0.7C-225.1,379.5-225.5,379.4-225.8,379.1z M-176.6,388.2c-0.4-1.1,0.2-2.2,1.3-2.6  c1.1-0.4,2.2,0.2,2.6,1.3c0.4,1.1-0.2,2.2-1.3,2.6c-0.3,0.1-0.6,0.1-0.8,0.1C-175.6,389.5-176.3,389-176.6,388.2z M-231.1,390.1  c-1.1-0.3-1.7-1.5-1.3-2.5c0.3-1.1,1.5-1.7,2.5-1.3c1.1,0.3,1.7,1.5,1.3,2.5c-0.3,0.9-1.2,1.5-2.1,1.4  C-230.8,390.2-230.9,390.1-231.1,390.1z M-175.3,399.6L-175.3,399.6l0-0.1c0.1-1.1,1.1-1.9,2.2-1.8c1.1,0.1,1.9,1.1,1.8,2.2l0,0.1  l0,0.1c-0.1,1.1-1.1,1.9-2.2,1.8C-174.6,401.7-175.4,400.7-175.3,399.6z M-233.6,400.5L-233.6,400.5c-0.1-1.1,0.7-2.1,1.8-2.2  c1.1-0.1,2.1,0.7,2.2,1.8c0.1,1.1-0.7,2.1-1.8,2.2c-0.1,0-0.3,0-0.4,0C-232.7,402.2-233.5,401.5-233.6,400.5z M-177.9,413.2  c-1-0.6-1.3-1.8-0.8-2.8c0.6-1,1.8-1.3,2.8-0.8c1,0.6,1.3,1.8,0.8,2.8c-0.4,0.7-1.2,1.1-2,1C-177.4,413.4-177.7,413.3-177.9,413.2z   M-229.5,412.9L-229.5,412.9c-0.6-1-0.2-2.2,0.7-2.8c1-0.6,2.2-0.2,2.8,0.7c0.6,1,0.3,2.2-0.7,2.8c-0.4,0.2-0.8,0.3-1.2,0.3  C-228.6,413.8-229.1,413.5-229.5,412.9z M-186.7,421.8c-0.7-0.9-0.5-2.2,0.4-2.8c0.9-0.7,2.2-0.5,2.8,0.4c0.7,0.9,0.5,2.2-0.4,2.8  c-0.4,0.3-0.9,0.4-1.4,0.4C-185.8,422.5-186.3,422.2-186.7,421.8z M-220.7,422.5c-0.9-0.7-1.1-1.9-0.5-2.8c0.7-0.9,1.9-1.1,2.8-0.5  c0.9,0.6,1.1,1.9,0.5,2.8c-0.4,0.6-1.1,0.9-1.8,0.8C-220,422.8-220.4,422.7-220.7,422.5z M-198.1,426.1c-0.2-1.1,0.5-2.2,1.5-2.4  c1.1-0.2,2.2,0.4,2.4,1.5c0.2,1.1-0.4,2.2-1.5,2.4c-0.2,0-0.4,0.1-0.6,0C-197.2,427.5-197.9,426.9-198.1,426.1z M-208.7,427.7  c-1.1-0.2-1.8-1.3-1.6-2.4c0.2-1.1,1.3-1.8,2.4-1.6c1.1,0.2,1.8,1.3,1.6,2.4c-0.2,1-1.2,1.7-2.2,1.6  C-208.6,427.7-208.6,427.7-208.7,427.7z"/><text x="-255" y="462" fill="#000000" font-size="5px" font-weight="bold" font-family="'Helvetica Neue', Helvetica, Arial-Unicode, Arial, Sans-serif">Created by Carl Holderness</text><text x="-255" y="467" fill="#000000" font-size="5px" font-weight="bold" font-family="'Helvetica Neue', Helvetica, Arial-Unicode, Arial, Sans-serif">from the Noun Project</text></svg>