<svg xmlns="http://www.w3.org/2000/svg" viewBox="0 0 96 120" x="0px" y="0px"><title>Artboard 27</title><g><path d="M16.59,49.41A2,2,0,0,1,16,48a1.71,1.71,0,0,1,0-.39,1.8,1.8,0,0,1,.11-.38,2.28,2.28,0,0,1,.19-.34,1.41,1.41,0,0,1,.25-.3,2,2,0,0,1,2.82,0A2,2,0,0,1,20,48a1.73,1.73,0,0,1,0,.39,1.64,1.64,0,0,1-.11.38,2.23,2.23,0,0,1-.19.34,2.16,2.16,0,0,1-.55.55,2.23,2.23,0,0,1-.34.19,1.8,1.8,0,0,1-.38.11,1.92,1.92,0,0,1-.78,0,1.57,1.57,0,0,1-.37-.11,1.94,1.94,0,0,1-.35-.19A1.41,1.41,0,0,1,16.59,49.41Zm30.3.25a2.24,2.24,0,0,0,.34.19,1.8,1.8,0,0,0,.38.11,1.92,1.92,0,0,0,.78,0,1.56,1.56,0,0,0,.37-.11,1.92,1.92,0,0,0,.35-.19,1.41,1.41,0,0,0,.3-.25A2,2,0,0,0,50,48a1.73,1.73,0,0,0,0-.39,1.8,1.8,0,0,0-.11-.38,2.24,2.24,0,0,0-.19-.34,1.41,1.41,0,0,0-.25-.3,2,2,0,0,0-2.82,0,1.41,1.41,0,0,0-.25.3,2.28,2.28,0,0,0-.19.34,2.65,2.65,0,0,0-.11.38A1.71,1.71,0,0,0,46,48a2,2,0,0,0,.59,1.41A1.41,1.41,0,0,0,46.89,49.66Zm30,0a1.94,1.94,0,0,0,.35.19,1.57,1.57,0,0,0,.37.11A1.73,1.73,0,0,0,78,50a2,2,0,0,0,1.42-.59A2,2,0,0,0,80,48a1.73,1.73,0,0,0,0-.39,2.72,2.72,0,0,0-.11-.38,2.24,2.24,0,0,0-.19-.34,1.75,1.75,0,0,0-.24-.3,1.79,1.79,0,0,0-.31-.25,2.28,2.28,0,0,0-.34-.19,1.8,1.8,0,0,0-.38-.11,2,2,0,0,0-.78,0,1.57,1.57,0,0,0-.37.11,2,2,0,0,0-.35.19,1.76,1.76,0,0,0-.31.25,1.73,1.73,0,0,0-.24.3,2.28,2.28,0,0,0-.19.34,2.65,2.65,0,0,0-.11.38A1.71,1.71,0,0,0,76,48a2,2,0,0,0,.58,1.41A1.76,1.76,0,0,0,76.89,49.66Z"/></g><text x="0" y="111" fill="#000000" font-size="5px" font-weight="bold" font-family="'Helvetica Neue', Helvetica, Arial-Unicode, Arial, Sans-serif">Created by olcay kurtulus</text><text x="0" y="116" fill="#000000" font-size="5px" font-weight="bold" font-family="'Helvetica Neue', Helvetica, Arial-Unicode, Arial, Sans-serif">from the Noun Project</text></svg>