<svg width="720" height="720" xmlns="http://www.w3.org/2000/svg" xmlns:xlink="http://www.w3.org/1999/xlink" xml:space="preserve" overflow="hidden"><g transform="translate(-280 0)"><g><path d="M458.56 257.904 488.295 264.023C491.063 272.735 494.582 281.191 498.807 289.296L482.103 314.711C480.095 317.618 480.491 321.553 483.039 323.999L532 372.961C534.404 375.353 538.155 375.743 541 373.896L566.415 357.192C574.52 361.418 582.977 364.936 591.688 367.704L597.807 397.439C598.501 400.847 601.532 403.27 605.007 403.2L674.703 403.2C678.179 403.27 681.21 400.847 681.903 397.439L688.023 367.704C696.735 364.936 705.191 361.418 713.295 357.192L738.711 373.896C741.617 375.904 745.552 375.508 747.999 372.961L796.96 323.999C799.353 321.595 799.742 317.845 797.895 314.999L781.191 289.584C785.417 281.479 788.934 273.023 791.703 264.311L821.438 258.192C824.846 257.498 827.27 254.468 827.199 250.992L827.199 181.152C827.27 177.674 824.846 174.646 821.438 173.952L791.703 167.833 791.703 167.83C788.935 159.118 785.417 150.665 781.191 142.56L797.895 117.145 797.895 117.142C799.821 114.266 799.43 110.425 796.96 107.999L747.999 59.0383C745.594 56.6453 741.844 56.2563 738.999 58.1032L713.583 74.8074C705.479 70.5816 697.022 67.0638 688.311 64.2954L681.903 34.5598C681.209 31.1519 678.179 28.7285 674.703 28.7988L605.151 28.7988C601.673 28.7285 598.644 31.1519 597.951 34.5598L591.831 64.2954 591.829 64.2954C583.117 67.0632 574.664 70.5816 566.559 74.8074L541.286 58.1032C538.38 56.0945 534.445 56.4907 531.998 59.0383L483.037 107.999C480.644 110.404 480.255 114.154 482.102 116.999L498.806 142.415C494.58 150.52 491.062 158.976 488.294 167.687L458.558 173.807C455.15 174.5 452.727 177.531 452.797 181.007L452.797 250.703C452.727 254.179 455.15 257.209 458.558 257.903ZM467.199 187.2 495.422 181.369C498.04 180.835 500.147 178.894 500.895 176.327 503.921 165.752 508.149 155.557 513.495 145.943 514.782 143.716 514.782 140.972 513.495 138.743L497.656 114.696 538.552 73.8 562.599 89.6388C564.825 90.9252 567.572 90.9252 569.799 89.6388 579.413 84.2928 589.606 80.0646 600.183 77.0388 602.747 76.2912 604.688 74.1864 605.222 71.5686L611.199 43.1998 668.799 43.1998 674.63 71.4234C675.165 74.0412 677.105 76.1484 679.672 76.896 690.247 79.9218 700.442 84.15 710.056 89.496 712.283 90.7824 715.028 90.7824 717.256 89.496L741.303 73.6572 782.199 114.553 766.361 138.6C765.074 140.827 765.074 143.573 766.361 145.8 771.707 155.414 775.934 165.607 778.961 176.185 779.708 178.748 781.812 180.689 784.431 181.223L812.799 187.2 812.799 244.8 784.576 250.631C781.958 251.166 779.851 253.106 779.103 255.673 776.078 266.248 771.849 276.443 766.503 286.057 765.216 288.284 765.216 291.028 766.503 293.257L782.342 317.304 741.446 358.2 717.399 342.361C715.173 341.075 712.425 341.075 710.199 342.361 700.586 347.707 690.392 351.935 679.815 354.961 677.25 355.709 675.31 357.814 674.775 360.431L668.799 388.8 611.199 388.8 605.367 360.577C604.833 357.959 602.892 355.852 600.326 355.104 589.751 352.078 579.556 347.85 569.942 342.504 567.715 341.218 564.971 341.218 562.742 342.504L538.695 358.343 497.799 317.447 513.638 293.4C514.925 291.173 514.925 288.427 513.638 286.2 508.292 276.586 504.063 266.393 501.038 255.815 500.29 253.252 498.185 251.311 495.567 250.777L467.199 244.8Z" fill="#7A81FF" fill-rule="nonzero" fill-opacity="1"/><path d="M640 297.288C661.558 297.288 682.235 288.724 697.478 273.478 712.724 258.234 721.289 237.557 721.289 215.999 721.289 194.441 712.725 173.765 697.478 158.521 682.235 143.275 661.558 134.711 640 134.711 618.442 134.711 597.765 143.275 582.522 158.521 567.276 173.765 558.711 194.441 558.711 215.999 558.73 237.553 567.301 258.217 582.54 273.459 597.782 288.698 618.447 297.269 640 297.288ZM640 149.112C657.74 149.112 674.753 156.16 687.297 168.703 699.84 181.247 706.888 198.26 706.888 216 706.888 233.74 699.84 250.753 687.297 263.297 674.753 275.84 657.74 282.888 640 282.888 622.26 282.888 605.247 275.84 592.703 263.297 580.16 250.753 573.112 233.74 573.112 216 573.131 198.267 580.185 181.263 592.725 168.724 605.264 156.185 622.268 149.131 640.001 149.111Z" fill="#7A81FF" fill-rule="nonzero" fill-opacity="1"/><path d="M316 691.2 484.696 691.2C487.279 691.212 489.669 689.838 490.961 687.6 492.245 685.374 492.245 682.626 490.961 680.4L406.649 536.4 406.646 536.4C405.36 534.181 402.985 532.811 400.419 532.811 397.853 532.811 395.478 534.181 394.191 536.4L309.879 680.4C308.602 682.608 308.59 685.332 309.849 687.552 311.108 689.772 313.447 691.158 315.999 691.2ZM400.312 554.4 472.312 676.8 328.528 676.8Z" fill="#7A81FF" fill-rule="nonzero" fill-opacity="1"/><path d="M712 691.2C713.91 691.2 715.74 690.438 717.09 689.088 718.44 687.738 719.2 685.908 719.2 684L719.2 540C719.2 538.09 718.44 536.26 717.09 534.91 715.74 533.56 713.91 532.8 712 532.8L568 532.8C564.023 532.8 560.8 536.023 560.8 540L560.8 684C560.8 685.908 561.56 687.738 562.91 689.088 564.26 690.438 566.09 691.2 568 691.2ZM575.2 547.2 704.8 547.2 704.8 676.8 575.2 676.8Z" fill="#7A81FF" fill-rule="nonzero" fill-opacity="1"/><path d="M812.8 612C812.8 633.006 821.144 653.148 835.996 668.004 850.851 682.854 870.995 691.2 892 691.2 913.006 691.2 933.148 682.854 948.004 668.004 962.854 653.148 971.2 633.006 971.2 612 971.2 590.995 962.854 570.851 948.004 555.996 933.148 541.144 913.006 532.8 892 532.8 870.995 532.8 850.851 541.144 835.996 555.996 821.144 570.851 812.8 590.995 812.8 612ZM956.8 612C956.8 629.19 949.972 645.666 937.822 657.822 925.666 669.972 909.184 676.8 892 676.8 874.814 676.8 858.332 669.972 846.18 657.822 834.027 645.666 827.2 629.184 827.2 612 827.2 594.814 834.027 578.332 846.18 566.18 858.332 554.027 874.814 547.2 892 547.2 909.184 547.2 925.666 554.027 937.822 566.18 949.972 578.332 956.8 594.814 956.8 612Z" fill="#7A81FF" fill-rule="nonzero" fill-opacity="1"/><path d="M400.312 511.2C402.222 511.2 404.052 510.44 405.402 509.09 406.752 507.74 407.512 505.91 407.512 504L407.512 475.2 632.8 475.2 632.8 504C632.8 507.977 636.023 511.2 640 511.2 643.977 511.2 647.2 507.977 647.2 504L647.2 475.2 884.8 475.2 884.8 504C884.8 507.977 888.022 511.2 892 511.2 895.978 511.2 899.2 507.977 899.2 504L899.2 468C899.2 466.09 898.438 464.26 897.088 462.91 895.738 461.56 893.908 460.8 892 460.8L647.2 460.8 647.2 432C647.2 428.023 643.977 424.8 640 424.8 636.023 424.8 632.8 428.023 632.8 432L632.8 460.8 400.312 460.8C396.337 460.8 393.112 464.023 393.112 468L393.112 504C393.112 505.91 393.872 507.74 395.222 509.09 396.572 510.44 398.402 511.2 400.312 511.2Z" fill="#7A81FF" fill-rule="nonzero" fill-opacity="1"/></g></g></svg>