<svg width="720" height="720" xmlns="http://www.w3.org/2000/svg" xmlns:xlink="http://www.w3.org/1999/xlink" xml:space="preserve" overflow="hidden"><g transform="translate(-280 0)"><g><path d="M920.8 633.6 903.28 633.6 903.28 409.386C903.28 405.392 900.046 402.186 896.08 402.186L770.582 402.186C766.617 402.186 763.382 405.392 763.382 409.386L763.382 633.6 709.917 633.6 709.945 382.248C709.945 378.254 706.71 375.048 702.745 375.048L577.249 375.048C573.283 375.048 570.049 378.254 570.049 382.248L570.049 633.6 516.584 633.6 516.584 79.2C516.584 75.2064 513.349 72 509.384 72L383.918 72C379.952 72 376.718 75.2064 376.718 79.2L376.718 633.6 359.196 633.6C355.23 633.6 351.996 636.804 351.996 640.8 351.996 644.796 355.23 648 359.196 648L920.794 648C924.76 648 927.994 644.796 927.994 640.8 927.994 636.804 924.76 633.6 920.794 633.6ZM777.784 416.586 888.88 416.586 888.88 633.6 777.784 633.6ZM584.452 389.446 695.548 389.446 695.548 633.6 584.452 633.6ZM391.12 86.3976 502.216 86.3976 502.216 633.6 391.12 633.6Z" fill="#FF7E79" fill-rule="nonzero" fill-opacity="1"/><path d="M791.284 72 688.54 72C684.575 72 681.34 75.2064 681.34 79.2L681.34 143.634 616.906 143.634C612.941 143.634 609.706 146.84 609.706 150.834L609.706 253.578C609.706 257.572 612.941 260.778 616.906 260.778L681.34 260.778 681.34 325.212C681.34 329.206 684.575 332.412 688.54 332.412L791.284 332.412C795.249 332.412 798.484 329.206 798.484 325.212L798.484 260.778 862.918 260.778C866.883 260.778 870.118 257.572 870.118 253.578L870.118 150.834C870.118 146.84 866.883 143.634 862.918 143.634L798.484 143.634 798.484 79.2C798.484 75.2064 795.249 72 791.284 72ZM855.718 158.034 855.718 246.378 791.284 246.378C787.319 246.378 784.084 249.584 784.084 253.578L784.084 318.012 695.74 318.012 695.74 253.578C695.74 249.584 692.505 246.378 688.54 246.378L624.106 246.378 624.106 158.034 688.54 158.034C692.505 158.034 695.74 154.828 695.74 150.834L695.74 86.4 784.084 86.4 784.084 150.834C784.084 154.828 787.319 158.034 791.284 158.034Z" fill="#FF7E79" fill-rule="nonzero" fill-opacity="1"/></g></g></svg>