<?xml version="1.0" encoding="UTF-8"?>
<svg width="1200pt" height="1200pt" version="1.1" viewBox="0 0 1200 1200" xmlns="http://www.w3.org/2000/svg" fill="#367b8e">
 <g>
  <path d="m297.6 429.84 49.559 10.199c4.6133 14.52 10.477 28.613 17.52 42.121l-27.84 42.359c-3.3477 4.8438-2.6875 11.402 1.5586 15.48l81.602 81.602c4.0078 3.9883 10.258 4.6367 15 1.5586l42.359-27.84c13.508 7.043 27.602 12.906 42.121 17.52l10.199 49.559c1.1562 5.6797 6.207 9.7188 12 9.6016h116.16c5.793 0.11719 10.844-3.9219 12-9.6016l10.199-49.559c14.52-4.6133 28.613-10.477 42.121-17.52l42.359 27.84c4.8438 3.3477 11.402 2.6875 15.48-1.5586l81.602-81.602c3.9883-4.0078 4.6367-10.258 1.5586-15l-27.84-42.359c7.043-13.508 12.906-27.602 17.52-42.121l49.559-10.199c5.6797-1.1562 9.7188-6.207 9.6016-12v-116.4c0.11719-5.7969-3.9219-10.844-9.6016-12l-49.559-10.199v-0.003906c-4.6133-14.52-10.477-28.609-17.52-42.117l27.84-42.359v-0.003907c3.2109-4.793 2.5586-11.195-1.5586-15.238l-81.602-81.602c-4.0078-3.9883-10.258-4.6367-15-1.5586l-42.359 27.84c-13.508-7.043-27.602-12.906-42.121-17.52l-10.68-49.559c-1.1562-5.6797-6.207-9.7188-12-9.6016h-115.92c-5.7969-0.11719-10.844 3.9219-12 9.6016l-10.199 49.559h-0.003906c-14.52 4.6133-28.609 10.477-42.117 17.52l-42.121-27.84c-4.8438-3.3477-11.402-2.6875-15.48 1.5586l-81.602 81.602c-3.9883 4.0078-4.6367 10.258-1.5586 15l27.84 42.359c-7.043 13.508-12.906 27.602-17.52 42.121l-49.559 10.199c-5.6797 1.1562-9.7188 6.207-9.6016 12v116.16c-0.11719 5.793 3.9219 10.844 9.6016 12zm14.398-117.84 47.039-9.7188c4.3633-0.89062 7.875-4.125 9.1211-8.4023 5.043-17.625 12.09-34.617 21-50.641 2.1445-3.7109 2.1445-8.2852 0-12l-26.398-40.078 68.16-68.16 40.078 26.398c3.7109 2.1445 8.2891 2.1445 12 0 16.023-8.9102 33.012-15.957 50.641-21 4.2734-1.2461 7.5078-4.7539 8.3984-9.1172l9.9609-47.281h96l9.7188 47.039c0.89062 4.3633 4.125 7.875 8.4023 9.1211 17.625 5.043 34.617 12.09 50.641 21 3.7109 2.1445 8.2852 2.1445 12 0l40.078-26.398 68.16 68.16-26.398 40.078c-2.1445 3.7109-2.1445 8.2891 0 12 8.9102 16.023 15.957 33.012 21 50.641 1.2461 4.2734 4.7539 7.5078 9.1172 8.3984l47.281 9.9609v96l-47.039 9.7188c-4.3633 0.89062-7.875 4.125-9.1211 8.4023-5.043 17.625-12.09 34.617-21 50.641-2.1445 3.7109-2.1445 8.2852 0 12l26.398 40.078-68.16 68.16-40.078-26.398c-3.7109-2.1445-8.2891-2.1445-12 0-16.023 8.9102-33.012 15.957-50.641 21-4.2734 1.2461-7.5078 4.7539-8.3984 9.1172l-9.9609 47.281h-96l-9.7188-47.039c-0.89062-4.3633-4.125-7.875-8.4023-9.1211-17.625-5.043-34.617-12.09-50.641-21-3.7109-2.1445-8.2852-2.1445-12 0l-40.078 26.398-68.16-68.16 26.398-40.078c2.1445-3.7109 2.1445-8.2891 0-12-8.9102-16.023-15.957-33.012-21-50.641-1.2461-4.2734-4.7539-7.5078-9.1172-8.3984l-47.281-9.9609z"/>
  <path d="m600 495.48c35.93 0 70.391-14.273 95.797-39.684 25.41-25.406 39.684-59.867 39.684-95.797s-14.273-70.391-39.684-95.797c-25.406-25.41-59.867-39.684-95.797-39.684s-70.391 14.273-95.797 39.684c-25.41 25.406-39.684 59.867-39.684 95.797 0.03125 35.922 14.316 70.363 39.715 95.766 25.402 25.398 59.844 39.684 95.766 39.715zm0-246.96c29.566 0 57.922 11.746 78.828 32.652s32.652 49.262 32.652 78.828-11.746 57.922-32.652 78.828-49.262 32.652-78.828 32.652-57.922-11.746-78.828-32.652-32.652-49.262-32.652-78.828c0.03125-29.555 11.789-57.895 32.688-78.793 20.898-20.898 49.238-32.656 78.793-32.688z"/>
  <path d="m60 1152h281.16c4.3047 0.015625 8.2891-2.2734 10.441-6 2.1406-3.7109 2.1406-8.2891 0-12l-140.52-240h-0.003906c-2.1445-3.6992-6.1016-5.9805-10.379-5.9805-4.2773 0-8.2344 2.2812-10.379 5.9805l-140.52 240c-2.1289 3.6836-2.1484 8.2188-0.050781 11.918s5.9961 6.0156 10.25 6.082zm140.52-228 120 204h-239.64z"/>
  <path d="m720 1152c3.1836 0 6.2344-1.2656 8.4844-3.5156s3.5156-5.3008 3.5156-8.4844v-240c0-3.1836-1.2656-6.2344-3.5156-8.4844s-5.3008-3.5156-8.4844-3.5156h-240c-6.6289 0-12 5.3711-12 12v240c0 3.1836 1.2656 6.2344 3.5156 8.4844s5.3008 3.5156 8.4844 3.5156zm-228-240h216v216h-216z"/>
  <path d="m888 1020c0 35.008 13.906 68.582 38.66 93.34 24.758 24.754 58.332 38.66 93.34 38.66s68.582-13.906 93.34-38.66c24.754-24.758 38.66-58.332 38.66-93.34s-13.906-68.582-38.66-93.34c-24.758-24.754-58.332-38.66-93.34-38.66s-68.582 13.906-93.34 38.66c-24.754 24.758-38.66 58.332-38.66 93.34zm240 0c0 28.645-11.379 56.113-31.633 76.367-20.254 20.254-47.723 31.633-76.367 31.633s-56.113-11.379-76.367-31.633c-20.254-20.254-31.633-47.723-31.633-76.367s11.379-56.113 31.633-76.367c20.254-20.254 47.723-31.633 76.367-31.633s56.113 11.379 76.367 31.633c20.254 20.254 31.633 47.723 31.633 76.367z"/>
  <path d="m200.52 852c3.1836 0 6.2344-1.2656 8.4844-3.5156s3.5156-5.3008 3.5156-8.4844v-48h375.48v48c0 6.6289 5.3711 12 12 12s12-5.3711 12-12v-48h396v48c0 6.6289 5.3711 12 12 12s12-5.3711 12-12v-60c0-3.1836-1.2656-6.2344-3.5156-8.4844s-5.3008-3.5156-8.4844-3.5156h-408v-48c0-6.6289-5.3711-12-12-12s-12 5.3711-12 12v48h-387.48c-6.625 0-12 5.3711-12 12v60c0 3.1836 1.2656 6.2344 3.5156 8.4844s5.3008 3.5156 8.4844 3.5156z"/>
 </g>
</svg>
