<svg width="720" height="720" xmlns="http://www.w3.org/2000/svg" xmlns:xlink="http://www.w3.org/1999/xlink" xml:space="preserve" overflow="hidden"><g transform="translate(-280 0)"><g><path d="M639.928 66.6C636.961 66.612 634.116 67.7952 632.018 69.8928 629.918 71.9928 628.734 74.8362 628.722 77.8056L628.722 125.201C608.472 130.27 593.346 148.718 593.346 170.487 593.346 174.055 593.742 177.537 594.51 180.879L395.88 234.316C395.733 234.349 395.588 234.387 395.442 234.427L395.112 234.515 395.112 234.539C391.676 235.451 388.873 237.935 387.553 241.237L314.473 425.851C313.964 427.175 313.711 428.584 313.725 430.004 313.714 430.304 313.714 430.604 313.725 430.904L313.725 443.867C313.725 491.005 351.387 529.493 398.013 529.493 444.64 529.493 482.325 491.005 482.325 443.867L482.325 431.232 482.323 431.234C482.517 429.406 482.262 427.557 481.578 425.851L413.154 252.967 605.016 201.287C611.187 208.293 619.418 213.437 628.725 215.767L628.725 503.677C594.389 509.014 567.285 536.653 562.653 571.267L515.853 571.267C512.87 571.255 510.003 572.429 507.885 574.529 505.768 576.632 504.57 579.489 504.559 582.472L504.559 642.108C504.547 645.102 505.733 647.982 507.854 650.106 509.975 652.224 512.853 653.412 515.853 653.4L764.079 653.4C767.067 653.394 769.929 652.2 772.037 650.082 774.141 647.964 775.32 645.09 775.308 642.108L775.308 582.472C775.297 579.5 774.108 576.653 772.004 574.553 769.901 572.453 767.051 571.271 764.079 571.267L718.969 571.267C714.27 536.068 686.379 508.093 651.229 503.437L651.229 215.749C668.521 211.382 682.07 197.257 685.616 179.648L863.24 131.857 798.374 295.705 798.374 295.707C797.742 297.313 797.486 299.04 797.629 300.76L797.629 313.658C797.629 360.795 835.312 399.35 881.944 399.35 928.57 399.35 966.232 360.793 966.232 313.658L966.232 301.112C966.43 299.277 966.172 297.421 965.482 295.707L892.402 111.117 892.402 111.115C891.574 109.013 890.14 107.208 888.274 105.933 886.408 104.66 884.2 103.978 881.944 103.973 880.954 103.985 879.972 104.126 879.021 104.391L879.021 104.369 684.453 156.71C679.648 141.276 666.985 129.199 651.23 125.222L651.23 77.8056C651.219 74.8224 650.023 71.9652 647.904 69.8628 645.786 67.7628 642.919 66.5886 639.936 66.6006ZM881.932 145.746 938.47 288.654 825.374 288.654ZM639.928 146.318C653.353 146.318 664.099 156.986 664.099 170.489 664.099 183.991 653.355 194.747 639.928 194.747 626.503 194.747 615.846 183.991 615.846 170.489 615.846 156.986 626.503 146.318 639.928 146.318ZM398.008 275.96 454.565 418.802 341.453 418.797ZM820.06 311.161 943.726 311.161 943.726 313.666C943.726 348.94 916.27 376.858 881.938 376.858 847.605 376.858 820.066 348.94 820.066 313.666ZM336.226 441.301 459.802 441.301 459.802 443.872C459.802 479.145 432.35 506.998 398.014 506.998 363.68 506.998 336.226 479.144 336.226 443.872ZM636.484 525.433 645.228 525.433C671.01 527.366 691.62 546.29 696.205 571.267L585.421 571.27C590.019 546.292 610.698 527.369 636.484 525.435ZM527.08 593.767 752.782 593.767 752.782 630.9 527.08 630.9Z" fill="#92D050" fill-rule="evenodd" fill-opacity="1"/></g></g></svg>