<svg width="408" height="374" xmlns="http://www.w3.org/2000/svg" xmlns:xlink="http://www.w3.org/1999/xlink" xml:space="preserve" overflow="hidden"><defs><clipPath id="clip0"><rect x="396" y="82" width="408" height="374"/></clipPath><clipPath id="clip1"><rect x="396" y="82" width="408" height="374"/></clipPath><clipPath id="clip2"><rect x="396" y="83" width="408" height="373"/></clipPath><clipPath id="clip3"><rect x="396" y="83" width="408" height="373"/></clipPath></defs><g clip-path="url(#clip0)" transform="translate(-396 -82)"><g clip-path="url(#clip1)"><g clip-path="url(#clip2)"><g clip-path="url(#clip3)"><path d="M107.871 169.933 351.955 169.933C360.648 169.933 367.683 162.858 367.683 154.205L367.683 38.046C367.683 29.3532 360.608 22.3181 351.955 22.3181L107.871 22.3181C99.1783 22.3181 92.1432 29.3936 92.1432 38.046L92.1432 154.205C92.1432 162.898 99.2187 169.933 107.871 169.933ZM101.442 38.046C101.442 34.488 104.353 31.5769 107.911 31.5769L351.996 31.5769C355.554 31.5769 358.465 34.488 358.465 38.046L358.465 154.205C358.465 157.763 355.554 160.674 351.996 160.674L107.871 160.674C104.313 160.674 101.402 157.763 101.402 154.205L101.402 38.046ZM118.99 126.672C128.046 126.672 135.405 134.03 135.405 143.087 135.405 145.634 137.467 147.736 140.054 147.736L319.812 147.736C322.36 147.736 324.462 145.674 324.462 143.087 324.462 134.03 331.821 126.672 340.877 126.672 343.424 126.672 345.527 124.61 345.527 122.022L345.527 70.1889C345.527 67.6418 343.465 65.5393 340.877 65.5393 331.821 65.5393 324.462 58.1808 324.462 49.1242 324.462 46.577 322.4 44.4746 319.812 44.4746L140.054 44.4746C137.507 44.4746 135.405 46.5366 135.405 49.1242 135.405 58.1808 128.046 65.5393 118.99 65.5393 116.442 65.5393 114.34 67.6013 114.34 70.1889L114.34 122.022C114.34 124.61 116.402 126.672 118.99 126.672ZM123.599 74.4342C134.071 72.534 142.319 64.2455 144.259 53.7738L315.608 53.7738C317.508 64.2455 325.796 72.4935 336.268 74.4342L336.268 117.858C325.796 119.758 317.548 128.046 315.608 138.518L144.259 138.518C142.359 128.046 134.071 119.798 123.599 117.858L123.599 74.4342ZM229.933 133.585C250.594 133.585 267.373 116.766 267.373 96.1459 267.373 75.4855 250.553 58.7064 229.933 58.7064 209.273 58.7064 192.494 75.5259 192.494 96.1459 192.494 116.766 209.273 133.585 229.933 133.585ZM229.933 67.9248C245.459 67.9248 258.114 80.5798 258.114 96.1055 258.114 111.631 245.459 124.286 229.933 124.286 214.408 124.286 201.753 111.631 201.753 96.1055 201.753 80.5798 214.408 67.9248 229.933 67.9248ZM233.653 102.575C233.653 101.604 232.845 100.796 231.874 100.796L228.033 100.796C221.928 100.796 216.955 95.8225 216.955 89.7173 216.955 84.5421 220.513 80.2159 225.284 79.003L225.284 76.8197C225.284 74.2725 227.346 72.1701 229.933 72.1701 232.521 72.1701 234.583 74.2321 234.583 76.8197L234.583 78.6391 238.303 78.6391C240.85 78.6391 242.952 80.7011 242.952 83.2887 242.952 85.8763 240.89 87.9383 238.303 87.9383L228.033 87.9383C227.063 87.9383 226.254 88.747 226.254 89.7173 226.254 90.6877 227.063 91.4963 228.033 91.4963L231.874 91.4963C237.979 91.4963 242.952 96.4694 242.952 102.575 242.952 107.75 239.394 112.076 234.623 113.289L234.623 115.472C234.623 118.019 232.561 120.122 229.974 120.122 227.386 120.122 225.324 118.06 225.324 115.472L225.324 113.612 221.605 113.612C219.057 113.612 216.955 111.55 216.955 108.963 216.955 106.375 219.017 104.313 221.605 104.313L231.874 104.313C232.804 104.353 233.653 103.545 233.653 102.575ZM281.969 96.1459C281.969 93.5987 284.031 91.4963 286.618 91.4963L318.64 91.4963C321.187 91.4963 323.29 93.5583 323.29 96.1459 323.29 98.7335 321.228 100.796 318.64 100.796L286.618 100.796C284.071 100.755 281.969 98.6931 281.969 96.1459ZM136.577 96.1459C136.577 93.5987 138.639 91.4963 141.227 91.4963L173.249 91.4963C175.796 91.4963 177.898 93.5583 177.898 96.1459 177.898 98.7335 175.836 100.796 173.249 100.796L141.227 100.796C138.68 100.755 136.577 98.6931 136.577 96.1459ZM387.697 189.017C378.317 177.13 358.384 170.216 330.406 186.348L257.548 228.437C252.13 216.348 238.06 205.675 211.658 205.675L152.952 205.675C88.2618 188.613 69.9059 230.216 61.0919 250.23 59.7576 253.262 58.5851 255.89 57.5743 257.669L52.6821 266.12C44.7576 261.996 34.9327 264.745 30.4044 272.548L14.3936 300.284C9.7844 308.29 12.5337 318.559 20.5392 323.168L118.545 379.772C121.133 381.268 123.963 382.036 126.874 382.036 128.329 382.036 129.785 381.834 131.24 381.47 135.567 380.298 139.205 377.549 141.429 373.667L157.44 345.931C159.664 342.05 160.27 337.562 159.098 333.195 158.006 329.112 155.418 325.675 151.86 323.411L156.753 314.961C162.979 304.125 166.699 303.599 176.483 303.599L216.146 303.599C216.146 303.599 216.146 303.599 216.146 303.599 230.297 303.599 242.588 300.284 254.839 293.209L381.753 219.947C387.009 216.915 390.689 211.78 391.821 205.836 392.953 199.933 391.457 193.788 387.697 189.017ZM149.434 341.241 133.424 368.977C132.413 370.716 130.796 371.929 128.855 372.454 126.914 372.98 124.893 372.697 123.154 371.726L25.1483 315.122C21.5499 313.06 20.337 308.451 22.399 304.893L38.4098 277.157C39.7845 274.772 42.3317 273.397 44.9193 273.397 46.1727 273.397 47.4665 273.721 48.639 274.408L146.645 331.012C150.243 333.074 151.497 337.683 149.434 341.241ZM382.724 204.098C382.077 207.373 380.055 210.203 377.144 211.901L250.23 285.163C239.314 291.47 228.801 294.3 216.146 294.3 216.146 294.3 216.146 294.3 216.146 294.3L176.483 294.3C164.96 294.3 157.319 295.392 148.707 310.311L143.855 318.721 60.728 270.688 65.5798 262.279C66.8331 260.055 68.1269 257.225 69.542 253.95 78.5582 233.532 93.5987 199.367 151.133 214.772 151.537 214.893 151.941 214.933 152.346 214.933L211.658 214.933C238.02 214.933 249.138 226.82 250.756 237.939 251.241 241.295 250.27 244.65 248.087 247.157 245.904 249.664 242.71 251.12 239.354 251.12L175.351 251.12C172.804 251.12 170.701 253.182 170.701 255.769 170.701 258.316 172.763 260.419 175.351 260.419L239.354 260.419C245.419 260.419 251.16 257.791 255.122 253.262 258.842 248.977 260.621 243.357 260.095 237.696L335.096 194.394C357.939 181.214 373.505 185.944 380.46 194.799 382.481 197.427 383.33 200.823 382.724 204.098Z" fill="#88D5A9" fill-rule="nonzero" fill-opacity="1" transform="matrix(1.00912 0 0 1 396 66.9942)"/><text fill="#88D5A9" fill-opacity="1" font-family="Helvetica Neue,Helvetica Neue_MSFontService,sans-serif" font-style="normal" font-variant="normal" font-weight="700" font-stretch="normal" font-size="5" text-anchor="start" direction="ltr" writing-mode="lr-tb" unicode-bidi="normal" text-decoration="none" transform="matrix(4.08 0 0 4.04314 396 532)">Created by Hanbai</text><text fill="#88D5A9" fill-opacity="1" font-family="Helvetica Neue,Helvetica Neue_MSFontService,sans-serif" font-style="normal" font-variant="normal" font-weight="700" font-stretch="normal" font-size="5" text-anchor="start" direction="ltr" writing-mode="lr-tb" unicode-bidi="normal" text-decoration="none" transform="matrix(4.08 0 0 4.04314 396 552)">from the Noun Project</text></g></g></g></g></svg>